<?xml version="1.0" encoding="UTF-8" standalone="no"?>
<!DOCTYPE svg PUBLIC "-//W3C//DTD SVG 1.1//EN"
 "http://www.w3.org/Graphics/SVG/1.1/DTD/svg11.dtd">
<!-- Generated by graphviz version 2.38.0 (20140413.2041)
 -->
<!-- Title: bleedcontrol_action Pages: 1 -->
<svg width="690pt" height="260pt"
 viewBox="0.00 0.00 690.22 260.00" xmlns="http://www.w3.org/2000/svg" xmlns:xlink="http://www.w3.org/1999/xlink">
<g id="graph0" class="graph" transform="scale(1 1) rotate(0) translate(4 256)">
<title>bleedcontrol_action</title>
<polygon fill="white" stroke="none" points="-4,4 -4,-256 686.221,-256 686.221,4 -4,4"/>
<!-- BleedControl_Action -->
<g id="node1" class="node"><title>BleedControl_Action</title>
<polygon fill="orange" stroke="black" points="334.979,-252 223.979,-252 223.979,-216 334.979,-216 334.979,-252"/>
<text text-anchor="middle" x="279.479" y="-231.2" font-family="Times,serif" font-size="11.00">BleedControl_Action</text>
</g>
<!-- Selector -->
<g id="node2" class="node"><title>Selector</title>
<polygon fill="cyan" stroke="black" points="274.973,-154.544 274.973,-169.456 254.767,-180 226.191,-180 205.985,-169.456 205.985,-154.544 226.191,-144 254.767,-144 274.973,-154.544"/>
<text text-anchor="middle" x="240.479" y="-159.2" font-family="Times,serif" font-size="11.00">Selector</text>
</g>
<!-- BleedControl_Action&#45;&gt;Selector -->
<g id="edge1" class="edge"><title>BleedControl_Action&#45;&gt;Selector</title>
<path fill="none" stroke="black" d="M269.838,-215.697C265.352,-207.644 259.92,-197.894 254.955,-188.982"/>
<polygon fill="black" stroke="black" points="257.933,-187.137 250.008,-180.104 251.818,-190.544 257.933,-187.137"/>
</g>
<!-- NS -->
<g id="node10" class="node"><title>NS</title>
<ellipse fill="gray" stroke="black" cx="319.479" cy="-162" rx="27" ry="18"/>
<text text-anchor="middle" x="319.479" y="-159.2" font-family="Times,serif" font-size="11.00">NS</text>
</g>
<!-- BleedControl_Action&#45;&gt;NS -->
<g id="edge9" class="edge"><title>BleedControl_Action&#45;&gt;NS</title>
<path fill="none" stroke="black" d="M289.367,-215.697C294.156,-207.316 299.994,-197.098 305.251,-187.899"/>
<polygon fill="black" stroke="black" points="308.331,-189.564 310.253,-179.145 302.253,-186.09 308.331,-189.564"/>
</g>
<!-- Sequence_1 -->
<g id="node3" class="node"><title>Sequence_1</title>
<polygon fill="orange" stroke="black" points="184.479,-108 114.479,-108 114.479,-72 184.479,-72 184.479,-108"/>
<text text-anchor="middle" x="149.479" y="-87.2" font-family="Times,serif" font-size="11.00">Sequence_1</text>
</g>
<!-- Selector&#45;&gt;Sequence_1 -->
<g id="edge2" class="edge"><title>Selector&#45;&gt;Sequence_1</title>
<path fill="none" stroke="black" d="M221.18,-146.155C209.169,-136.916 193.463,-124.834 179.813,-114.334"/>
<polygon fill="black" stroke="black" points="181.691,-111.363 171.631,-108.04 177.423,-116.911 181.691,-111.363"/>
</g>
<!-- Sequence_2 -->
<g id="node6" class="node"><title>Sequence_2</title>
<polygon fill="orange" stroke="black" points="448.479,-108 378.479,-108 378.479,-72 448.479,-72 448.479,-108"/>
<text text-anchor="middle" x="413.479" y="-87.2" font-family="Times,serif" font-size="11.00">Sequence_2</text>
</g>
<!-- Selector&#45;&gt;Sequence_2 -->
<g id="edge5" class="edge"><title>Selector&#45;&gt;Sequence_2</title>
<path fill="none" stroke="black" d="M267.131,-150.216C294.188,-139.268 336.568,-122.12 368.774,-109.089"/>
<polygon fill="black" stroke="black" points="370.457,-112.184 378.414,-105.188 367.831,-105.695 370.457,-112.184"/>
</g>
<!-- unstable? -->
<g id="node4" class="node"><title>unstable?</title>
<ellipse fill="gray" stroke="black" cx="35.4789" cy="-18" rx="35.4579" ry="18"/>
<text text-anchor="middle" x="35.4789" y="-15.2" font-family="Times,serif" font-size="11.00">unstable?</text>
</g>
<!-- Sequence_1&#45;&gt;unstable? -->
<g id="edge3" class="edge"><title>Sequence_1&#45;&gt;unstable?</title>
<path fill="none" stroke="black" d="M121.591,-71.8761C104.752,-61.5359 83.2778,-48.3502 65.9869,-37.733"/>
<polygon fill="black" stroke="black" points="67.726,-34.6937 57.3728,-32.4436 64.0631,-40.6589 67.726,-34.6937"/>
</g>
<!-- Move to tourniquet -->
<g id="node5" class="node"><title>Move to tourniquet</title>
<ellipse fill="gray" stroke="black" cx="149.479" cy="-18" rx="60.9711" ry="18"/>
<text text-anchor="middle" x="149.479" y="-15.2" font-family="Times,serif" font-size="11.00">Move to tourniquet</text>
</g>
<!-- Sequence_1&#45;&gt;Move to tourniquet -->
<g id="edge4" class="edge"><title>Sequence_1&#45;&gt;Move to tourniquet</title>
<path fill="none" stroke="black" d="M149.479,-71.6966C149.479,-63.9827 149.479,-54.7125 149.479,-46.1124"/>
<polygon fill="black" stroke="black" points="152.979,-46.1043 149.479,-36.1043 145.979,-46.1044 152.979,-46.1043"/>
</g>
<!-- Direct pressure to the bleeding site -->
<g id="node7" class="node"><title>Direct pressure to the bleeding site</title>
<ellipse fill="gray" stroke="black" cx="332.479" cy="-18" rx="104.063" ry="18"/>
<text text-anchor="middle" x="332.479" y="-15.2" font-family="Times,serif" font-size="11.00">Direct pressure to the bleeding site</text>
</g>
<!-- Sequence_2&#45;&gt;Direct pressure to the bleeding site -->
<g id="edge6" class="edge"><title>Sequence_2&#45;&gt;Direct pressure to the bleeding site</title>
<path fill="none" stroke="black" d="M393.456,-71.6966C383.278,-62.9003 370.758,-52.0803 359.716,-42.538"/>
<polygon fill="black" stroke="black" points="361.846,-39.7533 351.992,-35.8628 357.269,-45.0496 361.846,-39.7533"/>
</g>
<!-- Controlled? -->
<g id="node8" class="node"><title>Controlled?</title>
<ellipse fill="gray" stroke="black" cx="495.479" cy="-18" rx="40.7822" ry="18"/>
<text text-anchor="middle" x="495.479" y="-15.2" font-family="Times,serif" font-size="11.00">Controlled?</text>
</g>
<!-- Sequence_2&#45;&gt;Controlled? -->
<g id="edge7" class="edge"><title>Sequence_2&#45;&gt;Controlled?</title>
<path fill="none" stroke="black" d="M433.749,-71.6966C444.615,-62.4202 458.118,-50.8931 469.722,-40.9874"/>
<polygon fill="black" stroke="black" points="472.063,-43.5909 477.396,-34.4363 467.518,-38.2669 472.063,-43.5909"/>
</g>
<!-- Move to tourniquet* -->
<g id="node9" class="node"><title>Move to tourniquet*</title>
<ellipse fill="gray" stroke="black" cx="618.479" cy="-18" rx="63.9845" ry="18"/>
<text text-anchor="middle" x="618.479" y="-15.2" font-family="Times,serif" font-size="11.00">Move to tourniquet*</text>
</g>
<!-- Sequence_2&#45;&gt;Move to tourniquet* -->
<g id="edge8" class="edge"><title>Sequence_2&#45;&gt;Move to tourniquet*</title>
<path fill="none" stroke="black" d="M448.72,-76.9666C482.137,-65.5557 532.632,-48.3136 569.868,-35.5989"/>
<polygon fill="black" stroke="black" points="571.179,-38.8498 579.511,-32.3061 568.917,-32.2254 571.179,-38.8498"/>
</g>
</g>
</svg>
