<?xml version="1.0" encoding="UTF-8" standalone="no"?>
<!DOCTYPE svg PUBLIC "-//W3C//DTD SVG 1.1//EN"
 "http://www.w3.org/Graphics/SVG/1.1/DTD/svg11.dtd">
<!-- Generated by graphviz version 2.38.0 (20140413.2041)
 -->
<!-- Title: blscpr_action Pages: 1 -->
<svg width="364pt" height="188pt"
 viewBox="0.00 0.00 363.61 188.00" xmlns="http://www.w3.org/2000/svg" xmlns:xlink="http://www.w3.org/1999/xlink">
<g id="graph0" class="graph" transform="scale(1 1) rotate(0) translate(4 184)">
<title>blscpr_action</title>
<polygon fill="white" stroke="none" points="-4,4 -4,-184 359.606,-184 359.606,4 -4,4"/>
<!-- BLSCPR_Action -->
<g id="node1" class="node"><title>BLSCPR_Action</title>
<polygon fill="cyan" stroke="black" points="245.226,-154.544 245.226,-169.456 209.748,-180 159.575,-180 124.097,-169.456 124.097,-154.544 159.575,-144 209.748,-144 245.226,-154.544"/>
<text text-anchor="middle" x="184.662" y="-159.2" font-family="Times,serif" font-size="11.00">BLSCPR_Action</text>
</g>
<!-- Sequence_1 -->
<g id="node2" class="node"><title>Sequence_1</title>
<polygon fill="orange" stroke="black" points="131.662,-108 61.6615,-108 61.6615,-72 131.662,-72 131.662,-108"/>
<text text-anchor="middle" x="96.6615" y="-87.2" font-family="Times,serif" font-size="11.00">Sequence_1</text>
</g>
<!-- BLSCPR_Action&#45;&gt;Sequence_1 -->
<g id="edge1" class="edge"><title>BLSCPR_Action&#45;&gt;Sequence_1</title>
<path fill="none" stroke="black" d="M162.909,-143.697C151.826,-134.881 138.188,-124.032 126.172,-114.474"/>
<polygon fill="black" stroke="black" points="128.169,-111.59 118.164,-108.104 123.811,-117.069 128.169,-111.59"/>
</g>
<!-- Sequence_2 -->
<g id="node5" class="node"><title>Sequence_2</title>
<polygon fill="orange" stroke="black" points="219.662,-108 149.662,-108 149.662,-72 219.662,-72 219.662,-108"/>
<text text-anchor="middle" x="184.662" y="-87.2" font-family="Times,serif" font-size="11.00">Sequence_2</text>
</g>
<!-- BLSCPR_Action&#45;&gt;Sequence_2 -->
<g id="edge4" class="edge"><title>BLSCPR_Action&#45;&gt;Sequence_2</title>
<path fill="none" stroke="black" d="M184.662,-143.697C184.662,-135.983 184.662,-126.712 184.662,-118.112"/>
<polygon fill="black" stroke="black" points="188.162,-118.104 184.662,-108.104 181.162,-118.104 188.162,-118.104"/>
</g>
<!-- NS* -->
<g id="node8" class="node"><title>NS*</title>
<ellipse fill="gray" stroke="black" cx="264.662" cy="-90" rx="27" ry="18"/>
<text text-anchor="middle" x="264.662" y="-87.2" font-family="Times,serif" font-size="11.00">NS*</text>
</g>
<!-- BLSCPR_Action&#45;&gt;NS* -->
<g id="edge7" class="edge"><title>BLSCPR_Action&#45;&gt;NS*</title>
<path fill="none" stroke="black" d="M204.437,-143.697C215.565,-133.96 229.527,-121.743 241.205,-111.525"/>
<polygon fill="black" stroke="black" points="243.641,-114.044 248.862,-104.825 239.032,-108.776 243.641,-114.044"/>
</g>
<!-- DNR? -->
<g id="node3" class="node"><title>DNR?</title>
<ellipse fill="gray" stroke="black" cx="27.6615" cy="-18" rx="27.824" ry="18"/>
<text text-anchor="middle" x="27.6615" y="-15.2" font-family="Times,serif" font-size="11.00">DNR?</text>
</g>
<!-- Sequence_1&#45;&gt;DNR? -->
<g id="edge2" class="edge"><title>Sequence_1&#45;&gt;DNR?</title>
<path fill="none" stroke="black" d="M79.6054,-71.6966C70.4465,-62.405 59.0618,-50.8553 49.2869,-40.9388"/>
<polygon fill="black" stroke="black" points="51.702,-38.4031 42.1893,-33.7383 46.7167,-43.3171 51.702,-38.4031"/>
</g>
<!-- NS -->
<g id="node4" class="node"><title>NS</title>
<ellipse fill="gray" stroke="black" cx="100.662" cy="-18" rx="27" ry="18"/>
<text text-anchor="middle" x="100.662" y="-15.2" font-family="Times,serif" font-size="11.00">NS</text>
</g>
<!-- Sequence_1&#45;&gt;NS -->
<g id="edge3" class="edge"><title>Sequence_1&#45;&gt;NS</title>
<path fill="none" stroke="black" d="M97.6503,-71.6966C98.0911,-63.9827 98.6208,-54.7125 99.1123,-46.1124"/>
<polygon fill="black" stroke="black" points="102.608,-46.2878 99.6841,-36.1043 95.6193,-45.8883 102.608,-46.2878"/>
</g>
<!-- CPR -->
<g id="node6" class="node"><title>CPR</title>
<ellipse fill="gray" stroke="black" cx="180.662" cy="-18" rx="27" ry="18"/>
<text text-anchor="middle" x="180.662" y="-15.2" font-family="Times,serif" font-size="11.00">CPR</text>
</g>
<!-- Sequence_2&#45;&gt;CPR -->
<g id="edge5" class="edge"><title>Sequence_2&#45;&gt;CPR</title>
<path fill="none" stroke="black" d="M183.673,-71.6966C183.232,-63.9827 182.702,-54.7125 182.211,-46.1124"/>
<polygon fill="black" stroke="black" points="185.704,-45.8883 181.639,-36.1043 178.715,-46.2878 185.704,-45.8883"/>
</g>
<!-- AirwayManagement -->
<g id="node7" class="node"><title>AirwayManagement</title>
<ellipse fill="gray" stroke="black" cx="290.662" cy="-18" rx="64.889" ry="18"/>
<text text-anchor="middle" x="290.662" y="-15.2" font-family="Times,serif" font-size="11.00">AirwayManagement</text>
</g>
<!-- Sequence_2&#45;&gt;AirwayManagement -->
<g id="edge6" class="edge"><title>Sequence_2&#45;&gt;AirwayManagement</title>
<path fill="none" stroke="black" d="M210.592,-71.8761C224.938,-62.4023 242.901,-50.5399 258.176,-40.4528"/>
<polygon fill="black" stroke="black" points="260.395,-43.1816 266.811,-34.7503 256.538,-37.3403 260.395,-43.1816"/>
</g>
</g>
</svg>
