<?xml version="1.0" encoding="UTF-8" standalone="no"?>
<!DOCTYPE svg PUBLIC "-//W3C//DTD SVG 1.1//EN"
 "http://www.w3.org/Graphics/SVG/1.1/DTD/svg11.dtd">
<!-- Generated by graphviz version 2.38.0 (20140413.2041)
 -->
<!-- Title: chestpain_action Pages: 1 -->
<svg width="1284pt" height="476pt"
 viewBox="0.00 0.00 1283.61 476.00" xmlns="http://www.w3.org/2000/svg" xmlns:xlink="http://www.w3.org/1999/xlink">
<g id="graph0" class="graph" transform="scale(1 1) rotate(0) translate(4 472)">
<title>chestpain_action</title>
<polygon fill="white" stroke="none" points="-4,4 -4,-472 1279.61,-472 1279.61,4 -4,4"/>
<!-- ChestPain_Action -->
<g id="node1" class="node"><title>ChestPain_Action</title>
<polygon fill="cyan" stroke="black" points="430.777,-442.544 430.777,-457.456 393.714,-468 341.298,-468 304.234,-457.456 304.234,-442.544 341.298,-432 393.714,-432 430.777,-442.544"/>
<text text-anchor="middle" x="367.506" y="-447.2" font-family="Times,serif" font-size="11.00">ChestPain_Action</text>
</g>
<!-- Sequence_1 -->
<g id="node2" class="node"><title>Sequence_1</title>
<polygon fill="orange" stroke="black" points="215.506,-396 145.506,-396 145.506,-360 215.506,-360 215.506,-396"/>
<text text-anchor="middle" x="180.506" y="-375.2" font-family="Times,serif" font-size="11.00">Sequence_1</text>
</g>
<!-- ChestPain_Action&#45;&gt;Sequence_1 -->
<g id="edge1" class="edge"><title>ChestPain_Action&#45;&gt;Sequence_1</title>
<path fill="none" stroke="black" d="M330.113,-435.003C299.879,-423.685 257.226,-407.719 225.194,-395.728"/>
<polygon fill="black" stroke="black" points="226.212,-392.372 215.62,-392.144 223.758,-398.928 226.212,-392.372"/>
</g>
<!-- Sequence_2 -->
<g id="node6" class="node"><title>Sequence_2</title>
<polygon fill="orange" stroke="black" points="549.506,-396 479.506,-396 479.506,-360 549.506,-360 549.506,-396"/>
<text text-anchor="middle" x="514.506" y="-375.2" font-family="Times,serif" font-size="11.00">Sequence_2</text>
</g>
<!-- ChestPain_Action&#45;&gt;Sequence_2 -->
<g id="edge5" class="edge"><title>ChestPain_Action&#45;&gt;Sequence_2</title>
<path fill="none" stroke="black" d="M399.765,-433.638C420.49,-423.769 447.682,-410.821 470.393,-400.006"/>
<polygon fill="black" stroke="black" points="471.972,-403.131 479.496,-395.671 468.963,-396.811 471.972,-403.131"/>
</g>
<!-- 12&#45;Lead ECG -->
<g id="node3" class="node"><title>12&#45;Lead ECG</title>
<ellipse fill="gray" stroke="black" cx="47.5057" cy="-306" rx="47.5114" ry="18"/>
<text text-anchor="middle" x="47.5057" y="-303.2" font-family="Times,serif" font-size="11.00">12&#45;Lead ECG</text>
</g>
<!-- Sequence_1&#45;&gt;12&#45;Lead ECG -->
<g id="edge2" class="edge"><title>Sequence_1&#45;&gt;12&#45;Lead ECG</title>
<path fill="none" stroke="black" d="M147.97,-359.876C128.364,-349.557 103.372,-336.403 83.2205,-325.797"/>
<polygon fill="black" stroke="black" points="84.8183,-322.683 74.3389,-321.123 81.558,-328.877 84.8183,-322.683"/>
</g>
<!-- MI? -->
<g id="node4" class="node"><title>MI?</title>
<ellipse fill="gray" stroke="black" cx="140.506" cy="-306" rx="27" ry="18"/>
<text text-anchor="middle" x="140.506" y="-303.2" font-family="Times,serif" font-size="11.00">MI?</text>
</g>
<!-- Sequence_1&#45;&gt;MI? -->
<g id="edge3" class="edge"><title>Sequence_1&#45;&gt;MI?</title>
<path fill="none" stroke="black" d="M170.618,-359.697C165.829,-351.316 159.99,-341.098 154.734,-331.899"/>
<polygon fill="black" stroke="black" points="157.731,-330.09 149.731,-323.145 151.654,-333.564 157.731,-330.09"/>
</g>
<!-- Transport -->
<g id="node5" class="node"><title>Transport</title>
<ellipse fill="gray" stroke="black" cx="220.506" cy="-306" rx="35.4579" ry="18"/>
<text text-anchor="middle" x="220.506" y="-303.2" font-family="Times,serif" font-size="11.00">Transport</text>
</g>
<!-- Sequence_1&#45;&gt;Transport -->
<g id="edge4" class="edge"><title>Sequence_1&#45;&gt;Transport</title>
<path fill="none" stroke="black" d="M190.393,-359.697C195.064,-351.523 200.732,-341.603 205.886,-332.584"/>
<polygon fill="black" stroke="black" points="209.085,-334.041 211.007,-323.622 203.007,-330.568 209.085,-334.041"/>
</g>
<!-- Aspirin -->
<g id="node7" class="node"><title>Aspirin</title>
<ellipse fill="gray" stroke="black" cx="304.506" cy="-306" rx="30.1339" ry="18"/>
<text text-anchor="middle" x="304.506" y="-303.2" font-family="Times,serif" font-size="11.00">Aspirin</text>
</g>
<!-- Sequence_2&#45;&gt;Aspirin -->
<g id="edge6" class="edge"><title>Sequence_2&#45;&gt;Aspirin</title>
<path fill="none" stroke="black" d="M479.411,-367.353C444.574,-357.491 389.829,-341.215 343.506,-324 341.424,-323.227 339.294,-322.4 337.155,-321.544"/>
<polygon fill="black" stroke="black" points="338.422,-318.281 327.845,-317.673 335.734,-324.744 338.422,-318.281"/>
</g>
<!-- nitroglycerin -->
<g id="node8" class="node"><title>nitroglycerin</title>
<ellipse fill="gray" stroke="black" cx="396.506" cy="-306" rx="43.7956" ry="18"/>
<text text-anchor="middle" x="396.506" y="-303.2" font-family="Times,serif" font-size="11.00">nitroglycerin</text>
</g>
<!-- Sequence_2&#45;&gt;nitroglycerin -->
<g id="edge7" class="edge"><title>Sequence_2&#45;&gt;nitroglycerin</title>
<path fill="none" stroke="black" d="M485.64,-359.876C468.674,-349.812 447.164,-337.051 429.525,-326.588"/>
<polygon fill="black" stroke="black" points="431.085,-323.444 420.698,-321.352 427.513,-329.464 431.085,-323.444"/>
</g>
<!-- Advanced EMT? -->
<g id="node9" class="node"><title>Advanced EMT?</title>
<ellipse fill="gray" stroke="black" cx="514.506" cy="-306" rx="55.8489" ry="18"/>
<text text-anchor="middle" x="514.506" y="-303.2" font-family="Times,serif" font-size="11.00">Advanced EMT?</text>
</g>
<!-- Sequence_2&#45;&gt;Advanced EMT? -->
<g id="edge8" class="edge"><title>Sequence_2&#45;&gt;Advanced EMT?</title>
<path fill="none" stroke="black" d="M514.506,-359.697C514.506,-351.983 514.506,-342.712 514.506,-334.112"/>
<polygon fill="black" stroke="black" points="518.006,-334.104 514.506,-324.104 511.006,-334.104 518.006,-334.104"/>
</g>
<!-- Selector_1 -->
<g id="node10" class="node"><title>Selector_1</title>
<polygon fill="cyan" stroke="black" points="672.319,-298.544 672.319,-313.456 647.825,-324 613.186,-324 588.692,-313.456 588.692,-298.544 613.186,-288 647.825,-288 672.319,-298.544"/>
<text text-anchor="middle" x="630.506" y="-303.2" font-family="Times,serif" font-size="11.00">Selector_1</text>
</g>
<!-- Sequence_2&#45;&gt;Selector_1 -->
<g id="edge9" class="edge"><title>Sequence_2&#45;&gt;Selector_1</title>
<path fill="none" stroke="black" d="M542.882,-359.876C559.561,-349.812 580.706,-337.051 598.046,-326.588"/>
<polygon fill="black" stroke="black" points="599.969,-329.515 606.723,-321.352 596.353,-323.522 599.969,-329.515"/>
</g>
<!-- I/P? -->
<g id="node15" class="node"><title>I/P?</title>
<ellipse fill="gray" stroke="black" cx="717.506" cy="-306" rx="27" ry="18"/>
<text text-anchor="middle" x="717.506" y="-303.2" font-family="Times,serif" font-size="11.00">I/P?</text>
</g>
<!-- Sequence_2&#45;&gt;I/P? -->
<g id="edge14" class="edge"><title>Sequence_2&#45;&gt;I/P?</title>
<path fill="none" stroke="black" d="M549.521,-367.37C583.642,-357.64 636.772,-341.57 681.506,-324 683.339,-323.28 685.211,-322.509 687.089,-321.709"/>
<polygon fill="black" stroke="black" points="688.693,-324.825 696.392,-317.547 685.835,-318.436 688.693,-324.825"/>
</g>
<!-- Selector_2 -->
<g id="node16" class="node"><title>Selector_2</title>
<polygon fill="cyan" stroke="black" points="846.319,-298.544 846.319,-313.456 821.825,-324 787.186,-324 762.692,-313.456 762.692,-298.544 787.186,-288 821.825,-288 846.319,-298.544"/>
<text text-anchor="middle" x="804.506" y="-303.2" font-family="Times,serif" font-size="11.00">Selector_2</text>
</g>
<!-- Sequence_2&#45;&gt;Selector_2 -->
<g id="edge15" class="edge"><title>Sequence_2&#45;&gt;Selector_2</title>
<path fill="none" stroke="black" d="M549.616,-370.398C596.459,-361.321 681.823,-343.838 753.506,-324 756.699,-323.116 759.987,-322.151 763.283,-321.143"/>
<polygon fill="black" stroke="black" points="764.627,-324.389 773.104,-318.033 762.514,-317.715 764.627,-324.389"/>
</g>
<!-- Sequence_3 -->
<g id="node11" class="node"><title>Sequence_3</title>
<polygon fill="orange" stroke="black" points="589.506,-252 519.506,-252 519.506,-216 589.506,-216 589.506,-252"/>
<text text-anchor="middle" x="554.506" y="-231.2" font-family="Times,serif" font-size="11.00">Sequence_3</text>
</g>
<!-- Selector_1&#45;&gt;Sequence_3 -->
<g id="edge10" class="edge"><title>Selector_1&#45;&gt;Sequence_3</title>
<path fill="none" stroke="black" d="M612.108,-288.055C602.656,-279.349 590.976,-268.591 580.61,-259.043"/>
<polygon fill="black" stroke="black" points="582.724,-256.232 572.997,-252.032 577.981,-261.381 582.724,-256.232"/>
</g>
<!-- NS -->
<g id="node14" class="node"><title>NS</title>
<ellipse fill="gray" stroke="black" cx="634.506" cy="-234" rx="27" ry="18"/>
<text text-anchor="middle" x="634.506" y="-231.2" font-family="Times,serif" font-size="11.00">NS</text>
</g>
<!-- Selector_1&#45;&gt;NS -->
<g id="edge13" class="edge"><title>Selector_1&#45;&gt;NS</title>
<path fill="none" stroke="black" d="M631.494,-287.697C631.935,-279.983 632.465,-270.712 632.956,-262.112"/>
<polygon fill="black" stroke="black" points="636.452,-262.288 633.528,-252.104 629.463,-261.888 636.452,-262.288"/>
</g>
<!-- Nausea/Vommiting? -->
<g id="node12" class="node"><title>Nausea/Vommiting?</title>
<ellipse fill="gray" stroke="black" cx="443.506" cy="-162" rx="64.889" ry="18"/>
<text text-anchor="middle" x="443.506" y="-159.2" font-family="Times,serif" font-size="11.00">Nausea/Vommiting?</text>
</g>
<!-- Sequence_3&#45;&gt;Nausea/Vommiting? -->
<g id="edge11" class="edge"><title>Sequence_3&#45;&gt;Nausea/Vommiting?</title>
<path fill="none" stroke="black" d="M527.352,-215.876C512.189,-206.314 493.167,-194.318 477.076,-184.17"/>
<polygon fill="black" stroke="black" points="478.807,-181.124 468.481,-178.75 475.073,-187.045 478.807,-181.124"/>
</g>
<!-- ondansetron -->
<g id="node13" class="node"><title>ondansetron</title>
<ellipse fill="gray" stroke="black" cx="568.506" cy="-162" rx="42.1875" ry="18"/>
<text text-anchor="middle" x="568.506" y="-159.2" font-family="Times,serif" font-size="11.00">ondansetron</text>
</g>
<!-- Sequence_3&#45;&gt;ondansetron -->
<g id="edge12" class="edge"><title>Sequence_3&#45;&gt;ondansetron</title>
<path fill="none" stroke="black" d="M557.966,-215.697C559.509,-207.983 561.363,-198.712 563.083,-190.112"/>
<polygon fill="black" stroke="black" points="566.556,-190.597 565.085,-180.104 559.692,-189.224 566.556,-190.597"/>
</g>
<!-- Sequence_4 -->
<g id="node17" class="node"><title>Sequence_4</title>
<polygon fill="orange" stroke="black" points="835.506,-252 765.506,-252 765.506,-216 835.506,-216 835.506,-252"/>
<text text-anchor="middle" x="800.506" y="-231.2" font-family="Times,serif" font-size="11.00">Sequence_4</text>
</g>
<!-- Selector_2&#45;&gt;Sequence_4 -->
<g id="edge16" class="edge"><title>Selector_2&#45;&gt;Sequence_4</title>
<path fill="none" stroke="black" d="M803.517,-287.697C803.076,-279.983 802.546,-270.712 802.055,-262.112"/>
<polygon fill="black" stroke="black" points="805.548,-261.888 801.483,-252.104 798.559,-262.288 805.548,-261.888"/>
</g>
<!-- Sequence_6 -->
<g id="node25" class="node"><title>Sequence_6</title>
<polygon fill="orange" stroke="black" points="1034.51,-252 964.506,-252 964.506,-216 1034.51,-216 1034.51,-252"/>
<text text-anchor="middle" x="999.506" y="-231.2" font-family="Times,serif" font-size="11.00">Sequence_6</text>
</g>
<!-- Selector_2&#45;&gt;Sequence_6 -->
<g id="edge24" class="edge"><title>Selector_2&#45;&gt;Sequence_6</title>
<path fill="none" stroke="black" d="M835.836,-293.753C867.917,-282.237 918.095,-264.225 954.438,-251.178"/>
<polygon fill="black" stroke="black" points="956.066,-254.313 964.295,-247.64 953.701,-247.724 956.066,-254.313"/>
</g>
<!-- IV access -->
<g id="node18" class="node"><title>IV access</title>
<ellipse fill="gray" stroke="black" cx="694.506" cy="-162" rx="37.0671" ry="18"/>
<text text-anchor="middle" x="694.506" y="-159.2" font-family="Times,serif" font-size="11.00">IV access</text>
</g>
<!-- Sequence_4&#45;&gt;IV access -->
<g id="edge17" class="edge"><title>Sequence_4&#45;&gt;IV access</title>
<path fill="none" stroke="black" d="M774.575,-215.876C759.268,-205.767 739.842,-192.939 723.958,-182.45"/>
<polygon fill="black" stroke="black" points="725.82,-179.485 715.547,-176.895 721.963,-185.326 725.82,-179.485"/>
</g>
<!-- Fentanyl_IV -->
<g id="node19" class="node"><title>Fentanyl_IV</title>
<ellipse fill="gray" stroke="black" cx="793.506" cy="-162" rx="43.0936" ry="18"/>
<text text-anchor="middle" x="793.506" y="-159.2" font-family="Times,serif" font-size="11.00">Fentanyl_IV</text>
</g>
<!-- Sequence_4&#45;&gt;Fentanyl_IV -->
<g id="edge18" class="edge"><title>Sequence_4&#45;&gt;Fentanyl_IV</title>
<path fill="none" stroke="black" d="M798.775,-215.697C798.004,-207.983 797.077,-198.712 796.217,-190.112"/>
<polygon fill="black" stroke="black" points="799.694,-189.706 795.216,-180.104 792.729,-190.403 799.694,-189.706"/>
</g>
<!-- Selector_3 -->
<g id="node20" class="node"><title>Selector_3</title>
<polygon fill="cyan" stroke="black" points="938.319,-154.544 938.319,-169.456 913.825,-180 879.186,-180 854.692,-169.456 854.692,-154.544 879.186,-144 913.825,-144 938.319,-154.544"/>
<text text-anchor="middle" x="896.506" y="-159.2" font-family="Times,serif" font-size="11.00">Selector_3</text>
</g>
<!-- Sequence_4&#45;&gt;Selector_3 -->
<g id="edge19" class="edge"><title>Sequence_4&#45;&gt;Selector_3</title>
<path fill="none" stroke="black" d="M824.236,-215.697C837.203,-206.242 853.376,-194.449 867.133,-184.418"/>
<polygon fill="black" stroke="black" points="869.318,-187.156 875.336,-178.436 865.194,-181.5 869.318,-187.156"/>
</g>
<!-- Sequence_5 -->
<g id="node21" class="node"><title>Sequence_5</title>
<polygon fill="orange" stroke="black" points="863.506,-108 793.506,-108 793.506,-72 863.506,-72 863.506,-108"/>
<text text-anchor="middle" x="828.506" y="-87.2" font-family="Times,serif" font-size="11.00">Sequence_5</text>
</g>
<!-- Selector_3&#45;&gt;Sequence_5 -->
<g id="edge20" class="edge"><title>Selector_3&#45;&gt;Sequence_5</title>
<path fill="none" stroke="black" d="M879.697,-143.697C871.38,-135.135 861.2,-124.656 852.116,-115.304"/>
<polygon fill="black" stroke="black" points="854.6,-112.838 845.121,-108.104 849.579,-117.716 854.6,-112.838"/>
</g>
<!-- NS* -->
<g id="node24" class="node"><title>NS*</title>
<ellipse fill="gray" stroke="black" cx="908.506" cy="-90" rx="27" ry="18"/>
<text text-anchor="middle" x="908.506" y="-87.2" font-family="Times,serif" font-size="11.00">NS*</text>
</g>
<!-- Selector_3&#45;&gt;NS* -->
<g id="edge23" class="edge"><title>Selector_3&#45;&gt;NS*</title>
<path fill="none" stroke="black" d="M899.472,-143.697C900.794,-135.983 902.384,-126.712 903.858,-118.112"/>
<polygon fill="black" stroke="black" points="907.333,-118.552 905.574,-108.104 900.434,-117.369 907.333,-118.552"/>
</g>
<!-- Nausea/Vommiting?* -->
<g id="node22" class="node"><title>Nausea/Vommiting?*</title>
<ellipse fill="gray" stroke="black" cx="798.506" cy="-18" rx="67.9024" ry="18"/>
<text text-anchor="middle" x="798.506" y="-15.2" font-family="Times,serif" font-size="11.00">Nausea/Vommiting?*</text>
</g>
<!-- Sequence_5&#45;&gt;Nausea/Vommiting?* -->
<g id="edge21" class="edge"><title>Sequence_5&#45;&gt;Nausea/Vommiting?*</title>
<path fill="none" stroke="black" d="M821.09,-71.6966C817.711,-63.8132 813.636,-54.3042 809.883,-45.5464"/>
<polygon fill="black" stroke="black" points="812.992,-43.9171 805.836,-36.1043 806.558,-46.6745 812.992,-43.9171"/>
</g>
<!-- ondansetron* -->
<g id="node23" class="node"><title>ondansetron*</title>
<ellipse fill="gray" stroke="black" cx="929.506" cy="-18" rx="45.2009" ry="18"/>
<text text-anchor="middle" x="929.506" y="-15.2" font-family="Times,serif" font-size="11.00">ondansetron*</text>
</g>
<!-- Sequence_5&#45;&gt;ondansetron* -->
<g id="edge22" class="edge"><title>Sequence_5&#45;&gt;ondansetron*</title>
<path fill="none" stroke="black" d="M853.213,-71.8761C867.175,-62.1993 884.733,-50.0305 899.484,-39.8068"/>
<polygon fill="black" stroke="black" points="901.572,-42.6187 907.797,-34.0456 897.584,-36.8654 901.572,-42.6187"/>
</g>
<!-- Fentanyl_IN -->
<g id="node26" class="node"><title>Fentanyl_IN</title>
<ellipse fill="gray" stroke="black" cx="999.506" cy="-162" rx="43.0936" ry="18"/>
<text text-anchor="middle" x="999.506" y="-159.2" font-family="Times,serif" font-size="11.00">Fentanyl_IN</text>
</g>
<!-- Sequence_6&#45;&gt;Fentanyl_IN -->
<g id="edge25" class="edge"><title>Sequence_6&#45;&gt;Fentanyl_IN</title>
<path fill="none" stroke="black" d="M999.506,-215.697C999.506,-207.983 999.506,-198.712 999.506,-190.112"/>
<polygon fill="black" stroke="black" points="1003.01,-190.104 999.506,-180.104 996.006,-190.104 1003.01,-190.104"/>
</g>
<!-- Selector_4 -->
<g id="node27" class="node"><title>Selector_4</title>
<polygon fill="cyan" stroke="black" points="1144.32,-154.544 1144.32,-169.456 1119.83,-180 1085.19,-180 1060.69,-169.456 1060.69,-154.544 1085.19,-144 1119.83,-144 1144.32,-154.544"/>
<text text-anchor="middle" x="1102.51" y="-159.2" font-family="Times,serif" font-size="11.00">Selector_4</text>
</g>
<!-- Sequence_6&#45;&gt;Selector_4 -->
<g id="edge26" class="edge"><title>Sequence_6&#45;&gt;Selector_4</title>
<path fill="none" stroke="black" d="M1024.7,-215.876C1038.94,-206.199 1056.85,-194.03 1071.89,-183.807"/>
<polygon fill="black" stroke="black" points="1074.06,-186.561 1080.37,-178.046 1070.13,-180.772 1074.06,-186.561"/>
</g>
<!-- Sequence_7 -->
<g id="node28" class="node"><title>Sequence_7</title>
<polygon fill="orange" stroke="black" points="1130.51,-108 1060.51,-108 1060.51,-72 1130.51,-72 1130.51,-108"/>
<text text-anchor="middle" x="1095.51" y="-87.2" font-family="Times,serif" font-size="11.00">Sequence_7</text>
</g>
<!-- Selector_4&#45;&gt;Sequence_7 -->
<g id="edge27" class="edge"><title>Selector_4&#45;&gt;Sequence_7</title>
<path fill="none" stroke="black" d="M1100.78,-143.697C1100,-135.983 1099.08,-126.712 1098.22,-118.112"/>
<polygon fill="black" stroke="black" points="1101.69,-117.706 1097.22,-108.104 1094.73,-118.403 1101.69,-117.706"/>
</g>
<!-- NS** -->
<g id="node31" class="node"><title>NS**</title>
<ellipse fill="gray" stroke="black" cx="1175.51" cy="-90" rx="27" ry="18"/>
<text text-anchor="middle" x="1175.51" y="-87.2" font-family="Times,serif" font-size="11.00">NS**</text>
</g>
<!-- Selector_4&#45;&gt;NS** -->
<g id="edge30" class="edge"><title>Selector_4&#45;&gt;NS**</title>
<path fill="none" stroke="black" d="M1120.18,-144.055C1130.09,-134.548 1142.56,-122.593 1153.15,-112.439"/>
<polygon fill="black" stroke="black" points="1155.67,-114.872 1160.46,-105.424 1150.82,-109.819 1155.67,-114.872"/>
</g>
<!-- Nausea/Vommiting?** -->
<g id="node29" class="node"><title>Nausea/Vommiting?**</title>
<ellipse fill="gray" stroke="black" cx="1089.51" cy="-18" rx="71.6184" ry="18"/>
<text text-anchor="middle" x="1089.51" y="-15.2" font-family="Times,serif" font-size="11.00">Nausea/Vommiting?**</text>
</g>
<!-- Sequence_7&#45;&gt;Nausea/Vommiting?** -->
<g id="edge28" class="edge"><title>Sequence_7&#45;&gt;Nausea/Vommiting?**</title>
<path fill="none" stroke="black" d="M1094.02,-71.6966C1093.36,-63.9827 1092.57,-54.7125 1091.83,-46.1124"/>
<polygon fill="black" stroke="black" points="1095.31,-45.7689 1090.97,-36.1043 1088.34,-46.3667 1095.31,-45.7689"/>
</g>
<!-- ondansetron** -->
<g id="node30" class="node"><title>ondansetron**</title>
<ellipse fill="gray" stroke="black" cx="1227.51" cy="-18" rx="48.2143" ry="18"/>
<text text-anchor="middle" x="1227.51" y="-15.2" font-family="Times,serif" font-size="11.00">ondansetron**</text>
</g>
<!-- Sequence_7&#45;&gt;ondansetron** -->
<g id="edge29" class="edge"><title>Sequence_7&#45;&gt;ondansetron**</title>
<path fill="none" stroke="black" d="M1127.8,-71.8761C1147.17,-61.6032 1171.84,-48.5219 1191.79,-37.9408"/>
<polygon fill="black" stroke="black" points="1193.68,-40.9 1200.87,-33.1228 1190.4,-34.7157 1193.68,-40.9"/>
</g>
</g>
</svg>
