<?xml version="1.0" encoding="UTF-8" standalone="no"?>
<!DOCTYPE svg PUBLIC "-//W3C//DTD SVG 1.1//EN"
 "http://www.w3.org/Graphics/SVG/1.1/DTD/svg11.dtd">
<!-- Generated by graphviz version 2.38.0 (20140413.2041)
 -->
<!-- Title: generaltraumamanagement_action Pages: 1 -->
<svg width="1000pt" height="476pt"
 viewBox="0.00 0.00 1000.40 476.00" xmlns="http://www.w3.org/2000/svg" xmlns:xlink="http://www.w3.org/1999/xlink">
<g id="graph0" class="graph" transform="scale(1 1) rotate(0) translate(4 472)">
<title>generaltraumamanagement_action</title>
<polygon fill="white" stroke="none" points="-4,4 -4,-472 996.397,-472 996.397,4 -4,4"/>
<!-- GeneralTraumaManagement_Action -->
<g id="node1" class="node"><title>GeneralTraumaManagement_Action</title>
<polygon fill="orange" stroke="black" points="305.296,-468 125.296,-468 125.296,-432 305.296,-432 305.296,-468"/>
<text text-anchor="middle" x="215.296" y="-447.2" font-family="Times,serif" font-size="11.00">GeneralTraumaManagement_Action</text>
</g>
<!-- Spinal motion restriction -->
<g id="node2" class="node"><title>Spinal motion restriction</title>
<ellipse fill="gray" stroke="black" cx="80.2963" cy="-378" rx="75.3348" ry="18"/>
<text text-anchor="middle" x="80.2963" y="-375.2" font-family="Times,serif" font-size="11.00">Spinal motion restriction</text>
</g>
<!-- GeneralTraumaManagement_Action&#45;&gt;Spinal motion restriction -->
<g id="edge1" class="edge"><title>GeneralTraumaManagement_Action&#45;&gt;Spinal motion restriction</title>
<path fill="none" stroke="black" d="M182.272,-431.876C163.268,-422.023 139.282,-409.585 119.347,-399.249"/>
<polygon fill="black" stroke="black" points="120.705,-396.01 110.217,-394.514 117.483,-402.225 120.705,-396.01"/>
</g>
<!-- Selector_1 -->
<g id="node3" class="node"><title>Selector_1</title>
<polygon fill="cyan" stroke="black" points="257.11,-370.544 257.11,-385.456 232.616,-396 197.977,-396 173.483,-385.456 173.483,-370.544 197.977,-360 232.616,-360 257.11,-370.544"/>
<text text-anchor="middle" x="215.296" y="-375.2" font-family="Times,serif" font-size="11.00">Selector_1</text>
</g>
<!-- GeneralTraumaManagement_Action&#45;&gt;Selector_1 -->
<g id="edge2" class="edge"><title>GeneralTraumaManagement_Action&#45;&gt;Selector_1</title>
<path fill="none" stroke="black" d="M215.296,-431.697C215.296,-423.983 215.296,-414.712 215.296,-406.112"/>
<polygon fill="black" stroke="black" points="218.796,-406.104 215.296,-396.104 211.796,-406.104 218.796,-406.104"/>
</g>
<!-- Sequence_1 -->
<g id="node7" class="node"><title>Sequence_1</title>
<polygon fill="orange" stroke="black" points="504.296,-396 434.296,-396 434.296,-360 504.296,-360 504.296,-396"/>
<text text-anchor="middle" x="469.296" y="-375.2" font-family="Times,serif" font-size="11.00">Sequence_1</text>
</g>
<!-- GeneralTraumaManagement_Action&#45;&gt;Sequence_1 -->
<g id="edge6" class="edge"><title>GeneralTraumaManagement_Action&#45;&gt;Sequence_1</title>
<path fill="none" stroke="black" d="M277.107,-431.966C322.689,-419.404 383.641,-402.606 424.574,-391.325"/>
<polygon fill="black" stroke="black" points="425.56,-394.684 434.27,-388.653 423.7,-387.936 425.56,-394.684"/>
</g>
<!-- Evisceration -->
<g id="node4" class="node"><title>Evisceration</title>
<ellipse fill="gray" stroke="black" cx="43.2963" cy="-306" rx="43.0936" ry="18"/>
<text text-anchor="middle" x="43.2963" y="-303.2" font-family="Times,serif" font-size="11.00">Evisceration</text>
</g>
<!-- Selector_1&#45;&gt;Evisceration -->
<g id="edge3" class="edge"><title>Selector_1&#45;&gt;Evisceration</title>
<path fill="none" stroke="black" d="M185.728,-364.967C157.178,-353.347 113.77,-335.681 82.3802,-322.906"/>
<polygon fill="black" stroke="black" points="83.6356,-319.638 73.0539,-319.111 80.9969,-326.122 83.6356,-319.638"/>
</g>
<!-- OpenChestWound -->
<g id="node5" class="node"><title>OpenChestWound</title>
<ellipse fill="gray" stroke="black" cx="163.296" cy="-306" rx="58.8623" ry="18"/>
<text text-anchor="middle" x="163.296" y="-303.2" font-family="Times,serif" font-size="11.00">OpenChestWound</text>
</g>
<!-- Selector_1&#45;&gt;OpenChestWound -->
<g id="edge4" class="edge"><title>Selector_1&#45;&gt;OpenChestWound</title>
<path fill="none" stroke="black" d="M202.442,-359.697C196.179,-351.265 188.535,-340.975 181.669,-331.732"/>
<polygon fill="black" stroke="black" points="184.417,-329.563 175.644,-323.622 178.798,-333.737 184.417,-329.563"/>
</g>
<!-- NS -->
<g id="node6" class="node"><title>NS</title>
<ellipse fill="gray" stroke="black" cx="267.296" cy="-306" rx="27" ry="18"/>
<text text-anchor="middle" x="267.296" y="-303.2" font-family="Times,serif" font-size="11.00">NS</text>
</g>
<!-- Selector_1&#45;&gt;NS -->
<g id="edge5" class="edge"><title>Selector_1&#45;&gt;NS</title>
<path fill="none" stroke="black" d="M228.15,-359.697C234.598,-351.017 242.509,-340.368 249.528,-330.92"/>
<polygon fill="black" stroke="black" points="252.501,-332.786 255.655,-322.671 246.882,-328.612 252.501,-332.786"/>
</g>
<!-- Advanced EMT? -->
<g id="node8" class="node"><title>Advanced EMT?</title>
<ellipse fill="gray" stroke="black" cx="368.296" cy="-306" rx="55.8489" ry="18"/>
<text text-anchor="middle" x="368.296" y="-303.2" font-family="Times,serif" font-size="11.00">Advanced EMT?</text>
</g>
<!-- Sequence_1&#45;&gt;Advanced EMT? -->
<g id="edge7" class="edge"><title>Sequence_1&#45;&gt;Advanced EMT?</title>
<path fill="none" stroke="black" d="M444.589,-359.876C430.822,-350.335 413.559,-338.37 398.938,-328.237"/>
<polygon fill="black" stroke="black" points="400.894,-325.334 390.681,-322.514 396.906,-331.087 400.894,-325.334"/>
</g>
<!-- shock -->
<g id="node9" class="node"><title>shock</title>
<ellipse fill="gray" stroke="black" cx="469.296" cy="-306" rx="27" ry="18"/>
<text text-anchor="middle" x="469.296" y="-303.2" font-family="Times,serif" font-size="11.00">shock</text>
</g>
<!-- Sequence_1&#45;&gt;shock -->
<g id="edge8" class="edge"><title>Sequence_1&#45;&gt;shock</title>
<path fill="none" stroke="black" d="M469.296,-359.697C469.296,-351.983 469.296,-342.712 469.296,-334.112"/>
<polygon fill="black" stroke="black" points="472.796,-334.104 469.296,-324.104 465.796,-334.104 472.796,-334.104"/>
</g>
<!-- I/P? -->
<g id="node10" class="node"><title>I/P?</title>
<ellipse fill="gray" stroke="black" cx="541.296" cy="-306" rx="27" ry="18"/>
<text text-anchor="middle" x="541.296" y="-303.2" font-family="Times,serif" font-size="11.00">I/P?</text>
</g>
<!-- Sequence_1&#45;&gt;I/P? -->
<g id="edge9" class="edge"><title>Sequence_1&#45;&gt;I/P?</title>
<path fill="none" stroke="black" d="M487.094,-359.697C496.784,-350.276 508.861,-338.534 519.155,-328.527"/>
<polygon fill="black" stroke="black" points="521.879,-330.759 526.609,-321.279 517,-325.74 521.879,-330.759"/>
</g>
<!-- Selector_2 -->
<g id="node11" class="node"><title>Selector_2</title>
<polygon fill="cyan" stroke="black" points="670.11,-298.544 670.11,-313.456 645.616,-324 610.977,-324 586.483,-313.456 586.483,-298.544 610.977,-288 645.616,-288 670.11,-298.544"/>
<text text-anchor="middle" x="628.296" y="-303.2" font-family="Times,serif" font-size="11.00">Selector_2</text>
</g>
<!-- Sequence_1&#45;&gt;Selector_2 -->
<g id="edge10" class="edge"><title>Sequence_1&#45;&gt;Selector_2</title>
<path fill="none" stroke="black" d="M504.584,-361.465C530.169,-350.201 564.713,-334.993 590.796,-323.51"/>
<polygon fill="black" stroke="black" points="592.249,-326.694 599.991,-319.462 589.428,-320.288 592.249,-326.694"/>
</g>
<!-- Sequence_2 -->
<g id="node12" class="node"><title>Sequence_2</title>
<polygon fill="orange" stroke="black" points="563.296,-252 493.296,-252 493.296,-216 563.296,-216 563.296,-252"/>
<text text-anchor="middle" x="528.296" y="-231.2" font-family="Times,serif" font-size="11.00">Sequence_2</text>
</g>
<!-- Selector_2&#45;&gt;Sequence_2 -->
<g id="edge11" class="edge"><title>Selector_2&#45;&gt;Sequence_2</title>
<path fill="none" stroke="black" d="M606.598,-289.811C593.345,-280.534 576.136,-268.488 561.228,-258.052"/>
<polygon fill="black" stroke="black" points="562.963,-254.994 552.763,-252.127 558.948,-260.729 562.963,-254.994"/>
</g>
<!-- Sequence_3 -->
<g id="node21" class="node"><title>Sequence_3</title>
<polygon fill="orange" stroke="black" points="762.296,-252 692.296,-252 692.296,-216 762.296,-216 762.296,-252"/>
<text text-anchor="middle" x="727.296" y="-231.2" font-family="Times,serif" font-size="11.00">Sequence_3</text>
</g>
<!-- Selector_2&#45;&gt;Sequence_3 -->
<g id="edge20" class="edge"><title>Selector_2&#45;&gt;Sequence_3</title>
<path fill="none" stroke="black" d="M650.268,-289.465C663.315,-280.239 680.105,-268.368 694.677,-258.064"/>
<polygon fill="black" stroke="black" points="696.811,-260.842 702.955,-252.211 692.77,-255.126 696.811,-260.842"/>
</g>
<!-- IV access -->
<g id="node13" class="node"><title>IV access</title>
<ellipse fill="gray" stroke="black" cx="332.296" cy="-162" rx="37.0671" ry="18"/>
<text text-anchor="middle" x="332.296" y="-159.2" font-family="Times,serif" font-size="11.00">IV access</text>
</g>
<!-- Sequence_2&#45;&gt;IV access -->
<g id="edge12" class="edge"><title>Sequence_2&#45;&gt;IV access</title>
<path fill="none" stroke="black" d="M493.054,-220.524C462.851,-209.817 418.191,-193.951 379.296,-180 376.448,-178.978 373.503,-177.919 370.542,-176.853"/>
<polygon fill="black" stroke="black" points="371.715,-173.555 361.12,-173.453 369.339,-180.14 371.715,-173.555"/>
</g>
<!-- Fentanyl_IV -->
<g id="node14" class="node"><title>Fentanyl_IV</title>
<ellipse fill="gray" stroke="black" cx="431.296" cy="-162" rx="43.0936" ry="18"/>
<text text-anchor="middle" x="431.296" y="-159.2" font-family="Times,serif" font-size="11.00">Fentanyl_IV</text>
</g>
<!-- Sequence_2&#45;&gt;Fentanyl_IV -->
<g id="edge13" class="edge"><title>Sequence_2&#45;&gt;Fentanyl_IV</title>
<path fill="none" stroke="black" d="M504.319,-215.697C491.031,-206.108 474.411,-194.114 460.385,-183.992"/>
<polygon fill="black" stroke="black" points="462.197,-180.984 452.04,-177.97 458.101,-186.66 462.197,-180.984"/>
</g>
<!-- Ketamine -->
<g id="node15" class="node"><title>Ketamine</title>
<ellipse fill="gray" stroke="black" cx="528.296" cy="-162" rx="36.1607" ry="18"/>
<text text-anchor="middle" x="528.296" y="-159.2" font-family="Times,serif" font-size="11.00">Ketamine</text>
</g>
<!-- Sequence_2&#45;&gt;Ketamine -->
<g id="edge14" class="edge"><title>Sequence_2&#45;&gt;Ketamine</title>
<path fill="none" stroke="black" d="M528.296,-215.697C528.296,-207.983 528.296,-198.712 528.296,-190.112"/>
<polygon fill="black" stroke="black" points="531.796,-190.104 528.296,-180.104 524.796,-190.104 531.796,-190.104"/>
</g>
<!-- Selector_3 -->
<g id="node16" class="node"><title>Selector_3</title>
<polygon fill="cyan" stroke="black" points="666.11,-154.544 666.11,-169.456 641.616,-180 606.977,-180 582.483,-169.456 582.483,-154.544 606.977,-144 641.616,-144 666.11,-154.544"/>
<text text-anchor="middle" x="624.296" y="-159.2" font-family="Times,serif" font-size="11.00">Selector_3</text>
</g>
<!-- Sequence_2&#45;&gt;Selector_3 -->
<g id="edge15" class="edge"><title>Sequence_2&#45;&gt;Selector_3</title>
<path fill="none" stroke="black" d="M552.027,-215.697C564.993,-206.242 581.166,-194.449 594.923,-184.418"/>
<polygon fill="black" stroke="black" points="597.109,-187.156 603.127,-178.436 592.984,-181.5 597.109,-187.156"/>
</g>
<!-- Sequence_4 -->
<g id="node17" class="node"><title>Sequence_4</title>
<polygon fill="orange" stroke="black" points="593.296,-108 523.296,-108 523.296,-72 593.296,-72 593.296,-108"/>
<text text-anchor="middle" x="558.296" y="-87.2" font-family="Times,serif" font-size="11.00">Sequence_4</text>
</g>
<!-- Selector_3&#45;&gt;Sequence_4 -->
<g id="edge16" class="edge"><title>Selector_3&#45;&gt;Sequence_4</title>
<path fill="none" stroke="black" d="M607.982,-143.697C599.989,-135.22 590.225,-124.864 581.474,-115.583"/>
<polygon fill="black" stroke="black" points="583.83,-112.979 574.423,-108.104 578.737,-117.781 583.83,-112.979"/>
</g>
<!-- NS* -->
<g id="node20" class="node"><title>NS*</title>
<ellipse fill="gray" stroke="black" cx="638.296" cy="-90" rx="27" ry="18"/>
<text text-anchor="middle" x="638.296" y="-87.2" font-family="Times,serif" font-size="11.00">NS*</text>
</g>
<!-- Selector_3&#45;&gt;NS* -->
<g id="edge19" class="edge"><title>Selector_3&#45;&gt;NS*</title>
<path fill="none" stroke="black" d="M627.757,-143.697C629.3,-135.983 631.154,-126.712 632.874,-118.112"/>
<polygon fill="black" stroke="black" points="636.346,-118.597 634.875,-108.104 629.482,-117.224 636.346,-118.597"/>
</g>
<!-- Nausea/Vommiting? -->
<g id="node18" class="node"><title>Nausea/Vommiting?</title>
<ellipse fill="gray" stroke="black" cx="535.296" cy="-18" rx="64.889" ry="18"/>
<text text-anchor="middle" x="535.296" y="-15.2" font-family="Times,serif" font-size="11.00">Nausea/Vommiting?</text>
</g>
<!-- Sequence_4&#45;&gt;Nausea/Vommiting? -->
<g id="edge17" class="edge"><title>Sequence_4&#45;&gt;Nausea/Vommiting?</title>
<path fill="none" stroke="black" d="M552.611,-71.6966C550.049,-63.8979 546.963,-54.5085 544.112,-45.8292"/>
<polygon fill="black" stroke="black" points="547.363,-44.5121 540.916,-36.1043 540.713,-46.6972 547.363,-44.5121"/>
</g>
<!-- ondansetron -->
<g id="node19" class="node"><title>ondansetron</title>
<ellipse fill="gray" stroke="black" cx="660.296" cy="-18" rx="42.1875" ry="18"/>
<text text-anchor="middle" x="660.296" y="-15.2" font-family="Times,serif" font-size="11.00">ondansetron</text>
</g>
<!-- Sequence_4&#45;&gt;ondansetron -->
<g id="edge18" class="edge"><title>Sequence_4&#45;&gt;ondansetron</title>
<path fill="none" stroke="black" d="M583.248,-71.8761C597.546,-62.064 615.577,-49.6896 630.601,-39.379"/>
<polygon fill="black" stroke="black" points="632.784,-42.126 639.049,-33.5818 628.823,-36.3544 632.784,-42.126"/>
</g>
<!-- Fentanyl_IN -->
<g id="node22" class="node"><title>Fentanyl_IN</title>
<ellipse fill="gray" stroke="black" cx="727.296" cy="-162" rx="43.0936" ry="18"/>
<text text-anchor="middle" x="727.296" y="-159.2" font-family="Times,serif" font-size="11.00">Fentanyl_IN</text>
</g>
<!-- Sequence_3&#45;&gt;Fentanyl_IN -->
<g id="edge21" class="edge"><title>Sequence_3&#45;&gt;Fentanyl_IN</title>
<path fill="none" stroke="black" d="M727.296,-215.697C727.296,-207.983 727.296,-198.712 727.296,-190.112"/>
<polygon fill="black" stroke="black" points="730.796,-190.104 727.296,-180.104 723.796,-190.104 730.796,-190.104"/>
</g>
<!-- Selector_4 -->
<g id="node23" class="node"><title>Selector_4</title>
<polygon fill="cyan" stroke="black" points="872.11,-154.544 872.11,-169.456 847.616,-180 812.977,-180 788.483,-169.456 788.483,-154.544 812.977,-144 847.616,-144 872.11,-154.544"/>
<text text-anchor="middle" x="830.296" y="-159.2" font-family="Times,serif" font-size="11.00">Selector_4</text>
</g>
<!-- Sequence_3&#45;&gt;Selector_4 -->
<g id="edge22" class="edge"><title>Sequence_3&#45;&gt;Selector_4</title>
<path fill="none" stroke="black" d="M752.493,-215.876C766.732,-206.199 784.637,-194.03 799.681,-183.807"/>
<polygon fill="black" stroke="black" points="801.854,-186.561 808.158,-178.046 797.92,-180.772 801.854,-186.561"/>
</g>
<!-- Sequence_5 -->
<g id="node24" class="node"><title>Sequence_5</title>
<polygon fill="orange" stroke="black" points="858.296,-108 788.296,-108 788.296,-72 858.296,-72 858.296,-108"/>
<text text-anchor="middle" x="823.296" y="-87.2" font-family="Times,serif" font-size="11.00">Sequence_5</text>
</g>
<!-- Selector_4&#45;&gt;Sequence_5 -->
<g id="edge23" class="edge"><title>Selector_4&#45;&gt;Sequence_5</title>
<path fill="none" stroke="black" d="M828.566,-143.697C827.795,-135.983 826.868,-126.712 826.008,-118.112"/>
<polygon fill="black" stroke="black" points="829.485,-117.706 825.007,-108.104 822.519,-118.403 829.485,-117.706"/>
</g>
<!-- NS** -->
<g id="node27" class="node"><title>NS**</title>
<ellipse fill="gray" stroke="black" cx="903.296" cy="-90" rx="27" ry="18"/>
<text text-anchor="middle" x="903.296" y="-87.2" font-family="Times,serif" font-size="11.00">NS**</text>
</g>
<!-- Selector_4&#45;&gt;NS** -->
<g id="edge26" class="edge"><title>Selector_4&#45;&gt;NS**</title>
<path fill="none" stroke="black" d="M847.968,-144.055C857.882,-134.548 870.35,-122.593 880.939,-112.439"/>
<polygon fill="black" stroke="black" points="883.458,-114.872 888.254,-105.424 878.613,-109.819 883.458,-114.872"/>
</g>
<!-- Nausea/Vommiting?* -->
<g id="node25" class="node"><title>Nausea/Vommiting?*</title>
<ellipse fill="gray" stroke="black" cx="816.296" cy="-18" rx="67.9024" ry="18"/>
<text text-anchor="middle" x="816.296" y="-15.2" font-family="Times,serif" font-size="11.00">Nausea/Vommiting?*</text>
</g>
<!-- Sequence_5&#45;&gt;Nausea/Vommiting?* -->
<g id="edge24" class="edge"><title>Sequence_5&#45;&gt;Nausea/Vommiting?*</title>
<path fill="none" stroke="black" d="M821.566,-71.6966C820.795,-63.9827 819.868,-54.7125 819.008,-46.1124"/>
<polygon fill="black" stroke="black" points="822.485,-45.7064 818.007,-36.1043 815.519,-46.403 822.485,-45.7064"/>
</g>
<!-- ondansetron* -->
<g id="node26" class="node"><title>ondansetron*</title>
<ellipse fill="gray" stroke="black" cx="947.296" cy="-18" rx="45.2009" ry="18"/>
<text text-anchor="middle" x="947.296" y="-15.2" font-family="Times,serif" font-size="11.00">ondansetron*</text>
</g>
<!-- Sequence_5&#45;&gt;ondansetron* -->
<g id="edge25" class="edge"><title>Sequence_5&#45;&gt;ondansetron*</title>
<path fill="none" stroke="black" d="M853.63,-71.8761C871.745,-61.6497 894.791,-48.6402 913.489,-38.0846"/>
<polygon fill="black" stroke="black" points="915.291,-41.0866 922.279,-33.1228 911.85,-34.9909 915.291,-41.0866"/>
</g>
</g>
</svg>
