<?xml version="1.0" encoding="UTF-8" standalone="no"?>
<!DOCTYPE svg PUBLIC "-//W3C//DTD SVG 1.1//EN"
 "http://www.w3.org/Graphics/SVG/1.1/DTD/svg11.dtd">
<!-- Generated by graphviz version 2.38.0 (20140413.2041)
 -->
<!-- Title: protocols Pages: 1 -->
<svg width="1782pt" height="188pt"
 viewBox="0.00 0.00 1781.63 188.00" xmlns="http://www.w3.org/2000/svg" xmlns:xlink="http://www.w3.org/1999/xlink">
<g id="graph0" class="graph" transform="scale(1 1) rotate(0) translate(4 184)">
<title>protocols</title>
<polygon fill="white" stroke="none" points="-4,4 -4,-184 1777.63,-184 1777.63,4 -4,4"/>
<!-- protocols -->
<g id="node1" class="node"><title>protocols</title>
<polygon fill="gold" stroke="black" points="875.039,-180 824.039,-180 824.039,-144 881.039,-144 881.039,-174 875.039,-180"/>
<polyline fill="none" stroke="black" points="875.039,-180 875.039,-174 "/>
<polyline fill="none" stroke="black" points="881.039,-174 875.039,-174 "/>
<text text-anchor="middle" x="852.539" y="-159.2" font-family="Times,serif" font-size="11.00">protocols</text>
</g>
<!-- Chestpain -->
<g id="node2" class="node"><title>Chestpain</title>
<polygon fill="orange" stroke="black" points="213.039,-108 152.039,-108 152.039,-72 213.039,-72 213.039,-108"/>
<text text-anchor="middle" x="182.539" y="-87.2" font-family="Times,serif" font-size="11.00">Chestpain</text>
</g>
<!-- protocols&#45;&gt;Chestpain -->
<g id="edge1" class="edge"><title>protocols&#45;&gt;Chestpain</title>
<path fill="none" stroke="black" d="M823.75,-157.992C717.515,-146.893 347.266,-108.21 223.321,-95.2608"/>
<polygon fill="black" stroke="black" points="223.433,-91.7536 213.124,-94.1954 222.706,-98.7157 223.433,-91.7536"/>
</g>
<!-- Diab -->
<g id="node5" class="node"><title>Diab</title>
<polygon fill="orange" stroke="black" points="443.539,-108 389.539,-108 389.539,-72 443.539,-72 443.539,-108"/>
<text text-anchor="middle" x="416.539" y="-87.2" font-family="Times,serif" font-size="11.00">Diab</text>
</g>
<!-- protocols&#45;&gt;Diab -->
<g id="edge4" class="edge"><title>protocols&#45;&gt;Diab</title>
<path fill="none" stroke="black" d="M823.932,-156.407C747.549,-144.144 538.838,-110.635 453.572,-96.9457"/>
<polygon fill="black" stroke="black" points="453.994,-93.4687 443.566,-95.3392 452.885,-100.38 453.994,-93.4687"/>
</g>
<!-- Diab* -->
<g id="node8" class="node"><title>Diab*</title>
<polygon fill="orange" stroke="black" points="641.539,-108 587.539,-108 587.539,-72 641.539,-72 641.539,-108"/>
<text text-anchor="middle" x="614.539" y="-87.2" font-family="Times,serif" font-size="11.00">Diab*</text>
</g>
<!-- protocols&#45;&gt;Diab* -->
<g id="edge7" class="edge"><title>protocols&#45;&gt;Diab*</title>
<path fill="none" stroke="black" d="M823.831,-152.556C780.662,-139.86 699.037,-115.852 651.483,-101.866"/>
<polygon fill="black" stroke="black" points="652.46,-98.505 641.879,-99.0411 650.485,-105.221 652.46,-98.505"/>
</g>
<!-- resp -->
<g id="node11" class="node"><title>resp</title>
<polygon fill="orange" stroke="black" points="833.539,-108 779.539,-108 779.539,-72 833.539,-72 833.539,-108"/>
<text text-anchor="middle" x="806.539" y="-87.2" font-family="Times,serif" font-size="11.00">resp</text>
</g>
<!-- protocols&#45;&gt;resp -->
<g id="edge10" class="edge"><title>protocols&#45;&gt;resp</title>
<path fill="none" stroke="black" d="M841.168,-143.697C835.821,-135.559 829.335,-125.689 823.429,-116.701"/>
<polygon fill="black" stroke="black" points="826.196,-114.539 817.779,-108.104 820.346,-118.384 826.196,-114.539"/>
</g>
<!-- resp* -->
<g id="node14" class="node"><title>resp*</title>
<polygon fill="orange" stroke="black" points="925.539,-108 871.539,-108 871.539,-72 925.539,-72 925.539,-108"/>
<text text-anchor="middle" x="898.539" y="-87.2" font-family="Times,serif" font-size="11.00">resp*</text>
</g>
<!-- protocols&#45;&gt;resp* -->
<g id="edge13" class="edge"><title>protocols&#45;&gt;resp*</title>
<path fill="none" stroke="black" d="M863.91,-143.697C869.258,-135.559 875.743,-125.689 881.65,-116.701"/>
<polygon fill="black" stroke="black" points="884.732,-118.384 887.299,-108.104 878.882,-114.539 884.732,-118.384"/>
</g>
<!-- Seizure -->
<g id="node17" class="node"><title>Seizure</title>
<polygon fill="orange" stroke="black" points="1120.54,-108 1066.54,-108 1066.54,-72 1120.54,-72 1120.54,-108"/>
<text text-anchor="middle" x="1093.54" y="-87.2" font-family="Times,serif" font-size="11.00">Seizure</text>
</g>
<!-- protocols&#45;&gt;Seizure -->
<g id="edge16" class="edge"><title>protocols&#45;&gt;Seizure</title>
<path fill="none" stroke="black" d="M881.131,-152.695C924.899,-139.982 1008.5,-115.701 1056.73,-101.69"/>
<polygon fill="black" stroke="black" points="1057.84,-105.015 1066.46,-98.8642 1055.88,-98.2924 1057.84,-105.015"/>
</g>
<!-- Behavioral -->
<g id="node20" class="node"><title>Behavioral</title>
<polygon fill="orange" stroke="black" points="1351.04,-108 1286.04,-108 1286.04,-72 1351.04,-72 1351.04,-108"/>
<text text-anchor="middle" x="1318.54" y="-87.2" font-family="Times,serif" font-size="11.00">Behavioral</text>
</g>
<!-- protocols&#45;&gt;Behavioral -->
<g id="edge19" class="edge"><title>protocols&#45;&gt;Behavioral</title>
<path fill="none" stroke="black" d="M881.338,-156.674C960.617,-144.765 1182.38,-111.453 1275.99,-97.3916"/>
<polygon fill="black" stroke="black" points="1276.59,-100.84 1285.96,-95.8935 1275.55,-93.9179 1276.59,-100.84"/>
</g>
<!-- Abdopain -->
<g id="node23" class="node"><title>Abdopain</title>
<polygon fill="orange" stroke="black" points="1646.04,-108 1587.04,-108 1587.04,-72 1646.04,-72 1646.04,-108"/>
<text text-anchor="middle" x="1616.54" y="-87.2" font-family="Times,serif" font-size="11.00">Abdopain</text>
</g>
<!-- protocols&#45;&gt;Abdopain -->
<g id="edge22" class="edge"><title>protocols&#45;&gt;Abdopain</title>
<path fill="none" stroke="black" d="M881.094,-158.384C998.068,-147.666 1440.84,-107.098 1576.67,-94.6527"/>
<polygon fill="black" stroke="black" points="1577.38,-98.1025 1587.02,-93.7046 1576.74,-91.1317 1577.38,-98.1025"/>
</g>
<!-- Chestpain_Checker -->
<g id="node3" class="node"><title>Chestpain_Checker</title>
<ellipse fill="gray" stroke="black" cx="62.5391" cy="-18" rx="62.5783" ry="18"/>
<text text-anchor="middle" x="62.5391" y="-15.2" font-family="Times,serif" font-size="11.00">Chestpain_Checker</text>
</g>
<!-- Chestpain&#45;&gt;Chestpain_Checker -->
<g id="edge2" class="edge"><title>Chestpain&#45;&gt;Chestpain_Checker</title>
<path fill="none" stroke="black" d="M153.184,-71.8761C136.521,-62.1563 115.549,-49.9222 97.9745,-39.6706"/>
<polygon fill="black" stroke="black" points="99.5363,-36.5298 89.135,-34.5142 96.0092,-42.5762 99.5363,-36.5298"/>
</g>
<!-- Chestpain* -->
<g id="node4" class="node"><title>Chestpain*</title>
<ellipse fill="gray" stroke="black" cx="182.539" cy="-18" rx="39.8775" ry="18"/>
<text text-anchor="middle" x="182.539" y="-15.2" font-family="Times,serif" font-size="11.00">Chestpain*</text>
</g>
<!-- Chestpain&#45;&gt;Chestpain* -->
<g id="edge3" class="edge"><title>Chestpain&#45;&gt;Chestpain*</title>
<path fill="none" stroke="black" d="M182.539,-71.6966C182.539,-63.9827 182.539,-54.7125 182.539,-46.1124"/>
<polygon fill="black" stroke="black" points="186.039,-46.1043 182.539,-36.1043 179.039,-46.1044 186.039,-46.1043"/>
</g>
<!-- Overdose_Checker -->
<g id="node6" class="node"><title>Overdose_Checker</title>
<ellipse fill="gray" stroke="black" cx="301.539" cy="-18" rx="61.1733" ry="18"/>
<text text-anchor="middle" x="301.539" y="-15.2" font-family="Times,serif" font-size="11.00">Overdose_Checker</text>
</g>
<!-- Diab&#45;&gt;Overdose_Checker -->
<g id="edge5" class="edge"><title>Diab&#45;&gt;Overdose_Checker</title>
<path fill="none" stroke="black" d="M389.286,-72.411C373.222,-62.6333 352.757,-50.1758 335.631,-39.7517"/>
<polygon fill="black" stroke="black" points="337.383,-36.7207 327.021,-34.5108 333.743,-42.7001 337.383,-36.7207"/>
</g>
<!-- Overdose -->
<g id="node7" class="node"><title>Overdose</title>
<ellipse fill="gray" stroke="black" cx="416.539" cy="-18" rx="35.4579" ry="18"/>
<text text-anchor="middle" x="416.539" y="-15.2" font-family="Times,serif" font-size="11.00">Overdose</text>
</g>
<!-- Diab&#45;&gt;Overdose -->
<g id="edge6" class="edge"><title>Diab&#45;&gt;Overdose</title>
<path fill="none" stroke="black" d="M416.539,-71.6966C416.539,-63.9827 416.539,-54.7125 416.539,-46.1124"/>
<polygon fill="black" stroke="black" points="420.039,-46.1043 416.539,-36.1043 413.039,-46.1044 420.039,-46.1043"/>
</g>
<!-- Diab_Checker -->
<g id="node9" class="node"><title>Diab_Checker</title>
<ellipse fill="gray" stroke="black" cx="518.539" cy="-18" rx="48.9176" ry="18"/>
<text text-anchor="middle" x="518.539" y="-15.2" font-family="Times,serif" font-size="11.00">Diab_Checker</text>
</g>
<!-- Diab*&#45;&gt;Diab_Checker -->
<g id="edge8" class="edge"><title>Diab*&#45;&gt;Diab_Checker</title>
<path fill="none" stroke="black" d="M590.809,-71.6966C577.842,-62.2418 561.669,-50.4489 547.912,-40.4177"/>
<polygon fill="black" stroke="black" points="549.851,-37.5 539.709,-34.4363 545.727,-43.1561 549.851,-37.5"/>
</g>
<!-- Diab** -->
<g id="node10" class="node"><title>Diab**</title>
<ellipse fill="gray" stroke="black" cx="614.539" cy="-18" rx="29.4311" ry="18"/>
<text text-anchor="middle" x="614.539" y="-15.2" font-family="Times,serif" font-size="11.00">Diab**</text>
</g>
<!-- Diab*&#45;&gt;Diab** -->
<g id="edge9" class="edge"><title>Diab*&#45;&gt;Diab**</title>
<path fill="none" stroke="black" d="M614.539,-71.6966C614.539,-63.9827 614.539,-54.7125 614.539,-46.1124"/>
<polygon fill="black" stroke="black" points="618.039,-46.1043 614.539,-36.1043 611.039,-46.1044 618.039,-46.1043"/>
</g>
<!-- AMS_Checker -->
<g id="node12" class="node"><title>AMS_Checker</title>
<ellipse fill="gray" stroke="black" cx="711.539" cy="-18" rx="49.8222" ry="18"/>
<text text-anchor="middle" x="711.539" y="-15.2" font-family="Times,serif" font-size="11.00">AMS_Checker</text>
</g>
<!-- resp&#45;&gt;AMS_Checker -->
<g id="edge11" class="edge"><title>resp&#45;&gt;AMS_Checker</title>
<path fill="none" stroke="black" d="M783.056,-71.6966C770.224,-62.2418 754.22,-50.4489 740.606,-40.4177"/>
<polygon fill="black" stroke="black" points="742.615,-37.5506 732.488,-34.4363 738.463,-43.186 742.615,-37.5506"/>
</g>
<!-- AMS -->
<g id="node13" class="node"><title>AMS</title>
<ellipse fill="gray" stroke="black" cx="806.539" cy="-18" rx="27" ry="18"/>
<text text-anchor="middle" x="806.539" y="-15.2" font-family="Times,serif" font-size="11.00">AMS</text>
</g>
<!-- resp&#45;&gt;AMS -->
<g id="edge12" class="edge"><title>resp&#45;&gt;AMS</title>
<path fill="none" stroke="black" d="M806.539,-71.6966C806.539,-63.9827 806.539,-54.7125 806.539,-46.1124"/>
<polygon fill="black" stroke="black" points="810.039,-46.1043 806.539,-36.1043 803.039,-46.1044 810.039,-46.1043"/>
</g>
<!-- resp_Checker -->
<g id="node15" class="node"><title>resp_Checker</title>
<ellipse fill="gray" stroke="black" cx="898.539" cy="-18" rx="46.8089" ry="18"/>
<text text-anchor="middle" x="898.539" y="-15.2" font-family="Times,serif" font-size="11.00">resp_Checker</text>
</g>
<!-- resp*&#45;&gt;resp_Checker -->
<g id="edge14" class="edge"><title>resp*&#45;&gt;resp_Checker</title>
<path fill="none" stroke="black" d="M898.539,-71.6966C898.539,-63.9827 898.539,-54.7125 898.539,-46.1124"/>
<polygon fill="black" stroke="black" points="902.039,-46.1043 898.539,-36.1043 895.039,-46.1044 902.039,-46.1043"/>
</g>
<!-- resp** -->
<g id="node16" class="node"><title>resp**</title>
<ellipse fill="gray" stroke="black" cx="991.539" cy="-18" rx="27.824" ry="18"/>
<text text-anchor="middle" x="991.539" y="-15.2" font-family="Times,serif" font-size="11.00">resp**</text>
</g>
<!-- resp*&#45;&gt;resp** -->
<g id="edge15" class="edge"><title>resp*&#45;&gt;resp**</title>
<path fill="none" stroke="black" d="M921.528,-71.6966C934.98,-61.5712 951.995,-48.7644 965.882,-38.3115"/>
<polygon fill="black" stroke="black" points="968.18,-40.9625 974.065,-32.1523 963.971,-35.3697 968.18,-40.9625"/>
</g>
<!-- Seizure_Checker -->
<g id="node18" class="node"><title>Seizure_Checker</title>
<ellipse fill="gray" stroke="black" cx="1093.54" cy="-18" rx="55.8489" ry="18"/>
<text text-anchor="middle" x="1093.54" y="-15.2" font-family="Times,serif" font-size="11.00">Seizure_Checker</text>
</g>
<!-- Seizure&#45;&gt;Seizure_Checker -->
<g id="edge17" class="edge"><title>Seizure&#45;&gt;Seizure_Checker</title>
<path fill="none" stroke="black" d="M1093.54,-71.6966C1093.54,-63.9827 1093.54,-54.7125 1093.54,-46.1124"/>
<polygon fill="black" stroke="black" points="1097.04,-46.1043 1093.54,-36.1043 1090.04,-46.1044 1097.04,-46.1043"/>
</g>
<!-- Seizure* -->
<g id="node19" class="node"><title>Seizure*</title>
<ellipse fill="gray" stroke="black" cx="1201.54" cy="-18" rx="33.8507" ry="18"/>
<text text-anchor="middle" x="1201.54" y="-15.2" font-family="Times,serif" font-size="11.00">Seizure*</text>
</g>
<!-- Seizure&#45;&gt;Seizure* -->
<g id="edge18" class="edge"><title>Seizure&#45;&gt;Seizure*</title>
<path fill="none" stroke="black" d="M1119.96,-71.8761C1135.77,-61.6307 1155.88,-48.5919 1172.18,-38.0258"/>
<polygon fill="black" stroke="black" points="1174.31,-40.8197 1180.8,-32.4436 1170.5,-34.9456 1174.31,-40.8197"/>
</g>
<!-- Behavioral_Checker -->
<g id="node21" class="node"><title>Behavioral_Checker</title>
<ellipse fill="gray" stroke="black" cx="1318.54" cy="-18" rx="64.889" ry="18"/>
<text text-anchor="middle" x="1318.54" y="-15.2" font-family="Times,serif" font-size="11.00">Behavioral_Checker</text>
</g>
<!-- Behavioral&#45;&gt;Behavioral_Checker -->
<g id="edge20" class="edge"><title>Behavioral&#45;&gt;Behavioral_Checker</title>
<path fill="none" stroke="black" d="M1318.54,-71.6966C1318.54,-63.9827 1318.54,-54.7125 1318.54,-46.1124"/>
<polygon fill="black" stroke="black" points="1322.04,-46.1043 1318.54,-36.1043 1315.04,-46.1044 1322.04,-46.1043"/>
</g>
<!-- Behavioral_Checker* -->
<g id="node22" class="node"><title>Behavioral_Checker*</title>
<ellipse fill="gray" stroke="black" cx="1469.54" cy="-18" rx="67.9024" ry="18"/>
<text text-anchor="middle" x="1469.54" y="-15.2" font-family="Times,serif" font-size="11.00">Behavioral_Checker*</text>
</g>
<!-- Behavioral&#45;&gt;Behavioral_Checker* -->
<g id="edge21" class="edge"><title>Behavioral&#45;&gt;Behavioral_Checker*</title>
<path fill="none" stroke="black" d="M1351.3,-73.811C1373.82,-63.3746 1403.89,-49.4341 1428.07,-38.2241"/>
<polygon fill="black" stroke="black" points="1429.76,-41.3001 1437.36,-33.9188 1426.81,-34.9493 1429.76,-41.3001"/>
</g>
<!-- Abdopain_Checker -->
<g id="node24" class="node"><title>Abdopain_Checker</title>
<ellipse fill="gray" stroke="black" cx="1616.54" cy="-18" rx="61.1733" ry="18"/>
<text text-anchor="middle" x="1616.54" y="-15.2" font-family="Times,serif" font-size="11.00">Abdopain_Checker</text>
</g>
<!-- Abdopain&#45;&gt;Abdopain_Checker -->
<g id="edge23" class="edge"><title>Abdopain&#45;&gt;Abdopain_Checker</title>
<path fill="none" stroke="black" d="M1616.54,-71.6966C1616.54,-63.9827 1616.54,-54.7125 1616.54,-46.1124"/>
<polygon fill="black" stroke="black" points="1620.04,-46.1043 1616.54,-36.1043 1613.04,-46.1044 1620.04,-46.1043"/>
</g>
<!-- Abdopain* -->
<g id="node25" class="node"><title>Abdopain*</title>
<ellipse fill="gray" stroke="black" cx="1734.54" cy="-18" rx="39.1741" ry="18"/>
<text text-anchor="middle" x="1734.54" y="-15.2" font-family="Times,serif" font-size="11.00">Abdopain*</text>
</g>
<!-- Abdopain&#45;&gt;Abdopain* -->
<g id="edge24" class="edge"><title>Abdopain&#45;&gt;Abdopain*</title>
<path fill="none" stroke="black" d="M1645.41,-71.8761C1662.72,-61.6048 1684.77,-48.5259 1702.6,-37.9456"/>
<polygon fill="black" stroke="black" points="1704.68,-40.781 1711.5,-32.6687 1701.11,-34.7606 1704.68,-40.781"/>
</g>
</g>
</svg>
