<?xml version="1.0" encoding="UTF-8" standalone="no"?>
<!DOCTYPE svg PUBLIC "-//W3C//DTD SVG 1.1//EN"
 "http://www.w3.org/Graphics/SVG/1.1/DTD/svg11.dtd">
<!-- Generated by graphviz version 2.38.0 (20140413.2041)
 -->
<!-- Title: respiratory_action Pages: 1 -->
<svg width="596pt" height="260pt"
 viewBox="0.00 0.00 595.54 260.00" xmlns="http://www.w3.org/2000/svg" xmlns:xlink="http://www.w3.org/1999/xlink">
<g id="graph0" class="graph" transform="scale(1 1) rotate(0) translate(4 256)">
<title>respiratory_action</title>
<polygon fill="white" stroke="none" points="-4,4 -4,-256 591.539,-256 591.539,4 -4,4"/>
<!-- Respiratory_Action -->
<g id="node1" class="node"><title>Respiratory_Action</title>
<polygon fill="orange" stroke="black" points="257,-252 153,-252 153,-216 257,-216 257,-252"/>
<text text-anchor="middle" x="205" y="-231.2" font-family="Times,serif" font-size="11.00">Respiratory_Action</text>
</g>
<!-- MDI -->
<g id="node2" class="node"><title>MDI</title>
<ellipse fill="gray" stroke="black" cx="27" cy="-162" rx="27" ry="18"/>
<text text-anchor="middle" x="27" y="-159.2" font-family="Times,serif" font-size="11.00">MDI</text>
</g>
<!-- Respiratory_Action&#45;&gt;MDI -->
<g id="edge1" class="edge"><title>Respiratory_Action&#45;&gt;MDI</title>
<path fill="none" stroke="black" d="M156.297,-215.967C128.702,-206.031 93.6698,-192.938 63,-180 61.185,-179.234 59.328,-178.428 57.4607,-177.601"/>
<polygon fill="black" stroke="black" points="58.7373,-174.336 48.1869,-173.367 55.8299,-180.704 58.7373,-174.336"/>
</g>
<!-- CPAP -->
<g id="node3" class="node"><title>CPAP</title>
<ellipse fill="gray" stroke="black" cx="99" cy="-162" rx="27" ry="18"/>
<text text-anchor="middle" x="99" y="-159.2" font-family="Times,serif" font-size="11.00">CPAP</text>
</g>
<!-- Respiratory_Action&#45;&gt;CPAP -->
<g id="edge2" class="edge"><title>Respiratory_Action&#45;&gt;CPAP</title>
<path fill="none" stroke="black" d="M179.069,-215.876C163.038,-205.289 142.49,-191.72 126.223,-180.978"/>
<polygon fill="black" stroke="black" points="127.956,-177.928 117.683,-175.338 124.099,-183.769 127.956,-177.928"/>
</g>
<!-- AdministerOxygen -->
<g id="node4" class="node"><title>AdministerOxygen</title>
<ellipse fill="gray" stroke="black" cx="205" cy="-162" rx="60.9711" ry="18"/>
<text text-anchor="middle" x="205" y="-159.2" font-family="Times,serif" font-size="11.00">AdministerOxygen</text>
</g>
<!-- Respiratory_Action&#45;&gt;AdministerOxygen -->
<g id="edge3" class="edge"><title>Respiratory_Action&#45;&gt;AdministerOxygen</title>
<path fill="none" stroke="black" d="M205,-215.697C205,-207.983 205,-198.712 205,-190.112"/>
<polygon fill="black" stroke="black" points="208.5,-190.104 205,-180.104 201.5,-190.104 208.5,-190.104"/>
</g>
<!-- AlbuterolSulfate -->
<g id="node5" class="node"><title>AlbuterolSulfate</title>
<ellipse fill="gray" stroke="black" cx="338" cy="-162" rx="54.2411" ry="18"/>
<text text-anchor="middle" x="338" y="-159.2" font-family="Times,serif" font-size="11.00">AlbuterolSulfate</text>
</g>
<!-- Respiratory_Action&#45;&gt;AlbuterolSulfate -->
<g id="edge4" class="edge"><title>Respiratory_Action&#45;&gt;AlbuterolSulfate</title>
<path fill="none" stroke="black" d="M237.535,-215.876C256.788,-205.743 281.233,-192.877 301.189,-182.374"/>
<polygon fill="black" stroke="black" points="303.076,-185.337 310.295,-177.582 299.815,-179.142 303.076,-185.337"/>
</g>
<!-- Selector -->
<g id="node6" class="node"><title>Selector</title>
<polygon fill="cyan" stroke="black" points="479.494,-154.544 479.494,-169.456 459.288,-180 430.712,-180 410.506,-169.456 410.506,-154.544 430.712,-144 459.288,-144 479.494,-154.544"/>
<text text-anchor="middle" x="445" y="-159.2" font-family="Times,serif" font-size="11.00">Selector</text>
</g>
<!-- Respiratory_Action&#45;&gt;Selector -->
<g id="edge5" class="edge"><title>Respiratory_Action&#45;&gt;Selector</title>
<path fill="none" stroke="black" d="M257.02,-220.512C296.774,-210.589 352.76,-195.794 401,-180 403.61,-179.146 406.291,-178.223 408.979,-177.266"/>
<polygon fill="black" stroke="black" points="410.468,-180.447 418.637,-173.701 408.043,-173.88 410.468,-180.447"/>
</g>
<!-- Sequence -->
<g id="node7" class="node"><title>Sequence</title>
<polygon fill="orange" stroke="black" points="436.5,-108 377.5,-108 377.5,-72 436.5,-72 436.5,-108"/>
<text text-anchor="middle" x="407" y="-87.2" font-family="Times,serif" font-size="11.00">Sequence</text>
</g>
<!-- Selector&#45;&gt;Sequence -->
<g id="edge6" class="edge"><title>Selector&#45;&gt;Sequence</title>
<path fill="none" stroke="black" d="M435.607,-143.697C431.235,-135.644 425.943,-125.894 421.105,-116.982"/>
<polygon fill="black" stroke="black" points="424.132,-115.223 416.285,-108.104 417.98,-118.563 424.132,-115.223"/>
</g>
<!-- NS -->
<g id="node11" class="node"><title>NS</title>
<ellipse fill="gray" stroke="black" cx="482" cy="-90" rx="27" ry="18"/>
<text text-anchor="middle" x="482" y="-87.2" font-family="Times,serif" font-size="11.00">NS</text>
</g>
<!-- Selector&#45;&gt;NS -->
<g id="edge10" class="edge"><title>Selector&#45;&gt;NS</title>
<path fill="none" stroke="black" d="M454.146,-143.697C458.53,-135.403 463.864,-125.311 468.687,-116.187"/>
<polygon fill="black" stroke="black" points="471.888,-117.621 473.466,-107.145 465.699,-114.35 471.888,-117.621"/>
</g>
<!-- Advanced EMT? -->
<g id="node8" class="node"><title>Advanced EMT?</title>
<ellipse fill="gray" stroke="black" cx="296" cy="-18" rx="55.8489" ry="18"/>
<text text-anchor="middle" x="296" y="-15.2" font-family="Times,serif" font-size="11.00">Advanced EMT?</text>
</g>
<!-- Sequence&#45;&gt;Advanced EMT? -->
<g id="edge7" class="edge"><title>Sequence&#45;&gt;Advanced EMT?</title>
<path fill="none" stroke="black" d="M379.846,-71.8761C364.467,-62.1772 345.117,-49.9748 328.882,-39.7367"/>
<polygon fill="black" stroke="black" points="330.554,-36.6531 320.229,-34.2793 326.82,-42.5741 330.554,-36.6531"/>
</g>
<!-- IV access -->
<g id="node9" class="node"><title>IV access</title>
<ellipse fill="gray" stroke="black" cx="407" cy="-18" rx="37.0671" ry="18"/>
<text text-anchor="middle" x="407" y="-15.2" font-family="Times,serif" font-size="11.00">IV access</text>
</g>
<!-- Sequence&#45;&gt;IV access -->
<g id="edge8" class="edge"><title>Sequence&#45;&gt;IV access</title>
<path fill="none" stroke="black" d="M407,-71.6966C407,-63.9827 407,-54.7125 407,-46.1124"/>
<polygon fill="black" stroke="black" points="410.5,-46.1043 407,-36.1043 403.5,-46.1044 410.5,-46.1043"/>
</g>
<!-- Methylprednisolone -->
<g id="node10" class="node"><title>Methylprednisolone</title>
<ellipse fill="gray" stroke="black" cx="525" cy="-18" rx="62.5783" ry="18"/>
<text text-anchor="middle" x="525" y="-15.2" font-family="Times,serif" font-size="11.00">Methylprednisolone</text>
</g>
<!-- Sequence&#45;&gt;Methylprednisolone -->
<g id="edge9" class="edge"><title>Sequence&#45;&gt;Methylprednisolone</title>
<path fill="none" stroke="black" d="M435.866,-71.8761C452.251,-62.1563 472.874,-49.9222 490.155,-39.6706"/>
<polygon fill="black" stroke="black" points="492.033,-42.6265 498.847,-34.5142 488.461,-36.6061 492.033,-42.6265"/>
</g>
</g>
</svg>
