<?xml version="1.0" encoding="UTF-8" standalone="no"?>
<!DOCTYPE svg PUBLIC "-//W3C//DTD SVG 1.1//EN"
 "http://www.w3.org/Graphics/SVG/1.1/DTD/svg11.dtd">
<!-- Generated by graphviz version 2.38.0 (20140413.2041)
 -->
<!-- Title: burn_action Pages: 1 -->
<svg width="1007pt" height="404pt"
 viewBox="0.00 0.00 1007.22 404.00" xmlns="http://www.w3.org/2000/svg" xmlns:xlink="http://www.w3.org/1999/xlink">
<g id="graph0" class="graph" transform="scale(1 1) rotate(0) translate(4 400)">
<title>burn_action</title>
<polygon fill="white" stroke="none" points="-4,4 -4,-400 1003.22,-400 1003.22,4 -4,4"/>
<!-- Burn_Action -->
<g id="node1" class="node"><title>Burn_Action</title>
<polygon fill="orange" stroke="black" points="417.12,-396 343.12,-396 343.12,-360 417.12,-360 417.12,-396"/>
<text text-anchor="middle" x="380.12" y="-375.2" font-family="Times,serif" font-size="11.00">Burn_Action</text>
</g>
<!-- Spinal motion restriction -->
<g id="node2" class="node"><title>Spinal motion restriction</title>
<ellipse fill="gray" stroke="black" cx="144.12" cy="-306" rx="75.3348" ry="18"/>
<text text-anchor="middle" x="144.12" y="-303.2" font-family="Times,serif" font-size="11.00">Spinal motion restriction</text>
</g>
<!-- Burn_Action&#45;&gt;Spinal motion restriction -->
<g id="edge1" class="edge"><title>Burn_Action&#45;&gt;Spinal motion restriction</title>
<path fill="none" stroke="black" d="M342.986,-365.985C304.368,-354.531 243.487,-336.473 199.253,-323.353"/>
<polygon fill="black" stroke="black" points="200.101,-319.954 189.519,-320.466 198.111,-326.665 200.101,-319.954"/>
</g>
<!-- Selector -->
<g id="node3" class="node"><title>Selector</title>
<polygon fill="cyan" stroke="black" points="306.614,-298.544 306.614,-313.456 286.408,-324 257.833,-324 237.627,-313.456 237.627,-298.544 257.833,-288 286.408,-288 306.614,-298.544"/>
<text text-anchor="middle" x="272.12" y="-303.2" font-family="Times,serif" font-size="11.00">Selector</text>
</g>
<!-- Burn_Action&#45;&gt;Selector -->
<g id="edge2" class="edge"><title>Burn_Action&#45;&gt;Selector</title>
<path fill="none" stroke="black" d="M353.701,-359.876C337.999,-349.699 318.045,-336.766 301.801,-326.237"/>
<polygon fill="black" stroke="black" points="303.504,-323.171 293.209,-320.669 299.697,-329.045 303.504,-323.171"/>
</g>
<!-- Advanced EMT? -->
<g id="node8" class="node"><title>Advanced EMT?</title>
<ellipse fill="gray" stroke="black" cx="380.12" cy="-306" rx="55.8489" ry="18"/>
<text text-anchor="middle" x="380.12" y="-303.2" font-family="Times,serif" font-size="11.00">Advanced EMT?</text>
</g>
<!-- Burn_Action&#45;&gt;Advanced EMT? -->
<g id="edge7" class="edge"><title>Burn_Action&#45;&gt;Advanced EMT?</title>
<path fill="none" stroke="black" d="M380.12,-359.697C380.12,-351.983 380.12,-342.712 380.12,-334.112"/>
<polygon fill="black" stroke="black" points="383.621,-334.104 380.12,-324.104 376.621,-334.104 383.621,-334.104"/>
</g>
<!-- I/P? -->
<g id="node9" class="node"><title>I/P?</title>
<ellipse fill="gray" stroke="black" cx="481.12" cy="-306" rx="27" ry="18"/>
<text text-anchor="middle" x="481.12" y="-303.2" font-family="Times,serif" font-size="11.00">I/P?</text>
</g>
<!-- Burn_Action&#45;&gt;I/P? -->
<g id="edge8" class="edge"><title>Burn_Action&#45;&gt;I/P?</title>
<path fill="none" stroke="black" d="M404.828,-359.876C419.864,-349.455 439.07,-336.144 454.451,-325.484"/>
<polygon fill="black" stroke="black" points="456.778,-328.129 463.004,-319.556 452.791,-322.376 456.778,-328.129"/>
</g>
<!-- Selector* -->
<g id="node10" class="node"><title>Selector*</title>
<polygon fill="cyan" stroke="black" points="602.425,-298.544 602.425,-313.456 579.987,-324 548.254,-324 525.816,-313.456 525.816,-298.544 548.254,-288 579.987,-288 602.425,-298.544"/>
<text text-anchor="middle" x="564.12" y="-303.2" font-family="Times,serif" font-size="11.00">Selector*</text>
</g>
<!-- Burn_Action&#45;&gt;Selector* -->
<g id="edge9" class="edge"><title>Burn_Action&#45;&gt;Selector*</title>
<path fill="none" stroke="black" d="M417.356,-362.834C448.855,-350.851 493.822,-333.744 525.664,-321.63"/>
<polygon fill="black" stroke="black" points="526.993,-324.869 535.095,-318.042 524.504,-318.327 526.993,-324.869"/>
</g>
<!-- Electrical Burn? -->
<g id="node4" class="node"><title>Electrical Burn?</title>
<ellipse fill="gray" stroke="black" cx="54.1204" cy="-234" rx="54.2411" ry="18"/>
<text text-anchor="middle" x="54.1204" y="-231.2" font-family="Times,serif" font-size="11.00">Electrical Burn?</text>
</g>
<!-- Selector&#45;&gt;Electrical Burn? -->
<g id="edge3" class="edge"><title>Selector&#45;&gt;Electrical Burn?</title>
<path fill="none" stroke="black" d="M245.243,-294.258C239.613,-292.109 233.694,-289.923 228.12,-288 186.686,-273.706 139.032,-259.332 104.083,-249.167"/>
<polygon fill="black" stroke="black" points="104.702,-245.702 94.123,-246.284 102.755,-252.426 104.702,-245.702"/>
</g>
<!-- Chemical Burn? -->
<g id="node5" class="node"><title>Chemical Burn?</title>
<ellipse fill="gray" stroke="black" cx="180.12" cy="-234" rx="53.5381" ry="18"/>
<text text-anchor="middle" x="180.12" y="-231.2" font-family="Times,serif" font-size="11.00">Chemical Burn?</text>
</g>
<!-- Selector&#45;&gt;Chemical Burn? -->
<g id="edge4" class="edge"><title>Selector&#45;&gt;Chemical Burn?</title>
<path fill="none" stroke="black" d="M252.61,-290.155C239.911,-280.493 223.127,-267.722 208.907,-256.903"/>
<polygon fill="black" stroke="black" points="210.959,-254.066 200.882,-250.797 206.721,-259.637 210.959,-254.066"/>
</g>
<!-- Thermal Burn? -->
<g id="node6" class="node"><title>Thermal Burn?</title>
<ellipse fill="gray" stroke="black" cx="302.12" cy="-234" rx="50.5248" ry="18"/>
<text text-anchor="middle" x="302.12" y="-231.2" font-family="Times,serif" font-size="11.00">Thermal Burn?</text>
</g>
<!-- Selector&#45;&gt;Thermal Burn? -->
<g id="edge5" class="edge"><title>Selector&#45;&gt;Thermal Burn?</title>
<path fill="none" stroke="black" d="M279.536,-287.697C282.915,-279.813 286.99,-270.304 290.743,-261.546"/>
<polygon fill="black" stroke="black" points="294.068,-262.675 294.79,-252.104 287.634,-259.917 294.068,-262.675"/>
</g>
<!-- NS -->
<g id="node7" class="node"><title>NS</title>
<ellipse fill="gray" stroke="black" cx="398.12" cy="-234" rx="27" ry="18"/>
<text text-anchor="middle" x="398.12" y="-231.2" font-family="Times,serif" font-size="11.00">NS</text>
</g>
<!-- Selector&#45;&gt;NS -->
<g id="edge6" class="edge"><title>Selector&#45;&gt;NS</title>
<path fill="none" stroke="black" d="M294.938,-292.324C315.756,-280.758 346.621,-263.611 369.169,-251.084"/>
<polygon fill="black" stroke="black" points="370.925,-254.112 377.967,-246.196 367.526,-247.993 370.925,-254.112"/>
</g>
<!-- Sequence -->
<g id="node11" class="node"><title>Sequence</title>
<polygon fill="orange" stroke="black" points="562.62,-252 503.62,-252 503.62,-216 562.62,-216 562.62,-252"/>
<text text-anchor="middle" x="533.12" y="-231.2" font-family="Times,serif" font-size="11.00">Sequence</text>
</g>
<!-- Selector*&#45;&gt;Sequence -->
<g id="edge10" class="edge"><title>Selector*&#45;&gt;Sequence</title>
<path fill="none" stroke="black" d="M556.457,-287.697C552.929,-279.728 548.664,-270.1 544.752,-261.264"/>
<polygon fill="black" stroke="black" points="547.945,-259.831 540.695,-252.104 541.544,-262.665 547.945,-259.831"/>
</g>
<!-- Sequence** -->
<g id="node20" class="node"><title>Sequence**</title>
<polygon fill="orange" stroke="black" points="767.12,-252 697.12,-252 697.12,-216 767.12,-216 767.12,-252"/>
<text text-anchor="middle" x="732.12" y="-231.2" font-family="Times,serif" font-size="11.00">Sequence**</text>
</g>
<!-- Selector*&#45;&gt;Sequence** -->
<g id="edge19" class="edge"><title>Selector*&#45;&gt;Sequence**</title>
<path fill="none" stroke="black" d="M591.862,-293.441C617.848,-282.614 657.127,-266.247 687.514,-253.586"/>
<polygon fill="black" stroke="black" points="689.155,-256.694 697.04,-249.617 686.463,-250.232 689.155,-256.694"/>
</g>
<!-- IV access -->
<g id="node12" class="node"><title>IV access</title>
<ellipse fill="gray" stroke="black" cx="337.12" cy="-162" rx="37.0671" ry="18"/>
<text text-anchor="middle" x="337.12" y="-159.2" font-family="Times,serif" font-size="11.00">IV access</text>
</g>
<!-- Sequence&#45;&gt;IV access -->
<g id="edge11" class="edge"><title>Sequence&#45;&gt;IV access</title>
<path fill="none" stroke="black" d="M503.42,-222.488C473.336,-211.827 425.47,-194.832 384.12,-180 381.272,-178.978 378.327,-177.919 375.366,-176.853"/>
<polygon fill="black" stroke="black" points="376.539,-173.555 365.945,-173.453 374.163,-180.14 376.539,-173.555"/>
</g>
<!-- Fentanyl_IV -->
<g id="node13" class="node"><title>Fentanyl_IV</title>
<ellipse fill="gray" stroke="black" cx="436.12" cy="-162" rx="43.0936" ry="18"/>
<text text-anchor="middle" x="436.12" y="-159.2" font-family="Times,serif" font-size="11.00">Fentanyl_IV</text>
</g>
<!-- Sequence&#45;&gt;Fentanyl_IV -->
<g id="edge12" class="edge"><title>Sequence&#45;&gt;Fentanyl_IV</title>
<path fill="none" stroke="black" d="M509.143,-215.697C495.855,-206.108 479.235,-194.114 465.209,-183.992"/>
<polygon fill="black" stroke="black" points="467.021,-180.984 456.864,-177.97 462.925,-186.66 467.021,-180.984"/>
</g>
<!-- Ketamine -->
<g id="node14" class="node"><title>Ketamine</title>
<ellipse fill="gray" stroke="black" cx="533.12" cy="-162" rx="36.1607" ry="18"/>
<text text-anchor="middle" x="533.12" y="-159.2" font-family="Times,serif" font-size="11.00">Ketamine</text>
</g>
<!-- Sequence&#45;&gt;Ketamine -->
<g id="edge13" class="edge"><title>Sequence&#45;&gt;Ketamine</title>
<path fill="none" stroke="black" d="M533.12,-215.697C533.12,-207.983 533.12,-198.712 533.12,-190.112"/>
<polygon fill="black" stroke="black" points="536.621,-190.104 533.12,-180.104 529.621,-190.104 536.621,-190.104"/>
</g>
<!-- Selector** -->
<g id="node15" class="node"><title>Selector**</title>
<polygon fill="cyan" stroke="black" points="670.934,-154.544 670.934,-169.456 646.44,-180 611.801,-180 587.307,-169.456 587.307,-154.544 611.801,-144 646.44,-144 670.934,-154.544"/>
<text text-anchor="middle" x="629.12" y="-159.2" font-family="Times,serif" font-size="11.00">Selector**</text>
</g>
<!-- Sequence&#45;&gt;Selector** -->
<g id="edge14" class="edge"><title>Sequence&#45;&gt;Selector**</title>
<path fill="none" stroke="black" d="M556.851,-215.697C569.817,-206.242 585.991,-194.449 599.748,-184.418"/>
<polygon fill="black" stroke="black" points="601.933,-187.156 607.951,-178.436 597.808,-181.5 601.933,-187.156"/>
</g>
<!-- Sequence* -->
<g id="node16" class="node"><title>Sequence*</title>
<polygon fill="orange" stroke="black" points="597.62,-108 532.62,-108 532.62,-72 597.62,-72 597.62,-108"/>
<text text-anchor="middle" x="565.12" y="-87.2" font-family="Times,serif" font-size="11.00">Sequence*</text>
</g>
<!-- Selector**&#45;&gt;Sequence* -->
<g id="edge15" class="edge"><title>Selector**&#45;&gt;Sequence*</title>
<path fill="none" stroke="black" d="M613.3,-143.697C605.55,-135.22 596.081,-124.864 587.596,-115.583"/>
<polygon fill="black" stroke="black" points="590.089,-113.123 580.759,-108.104 584.923,-117.846 590.089,-113.123"/>
</g>
<!-- NS* -->
<g id="node19" class="node"><title>NS*</title>
<ellipse fill="gray" stroke="black" cx="643.12" cy="-90" rx="27" ry="18"/>
<text text-anchor="middle" x="643.12" y="-87.2" font-family="Times,serif" font-size="11.00">NS*</text>
</g>
<!-- Selector**&#45;&gt;NS* -->
<g id="edge18" class="edge"><title>Selector**&#45;&gt;NS*</title>
<path fill="none" stroke="black" d="M632.581,-143.697C634.124,-135.983 635.978,-126.712 637.698,-118.112"/>
<polygon fill="black" stroke="black" points="641.17,-118.597 639.7,-108.104 634.306,-117.224 641.17,-118.597"/>
</g>
<!-- Nausea/Vommiting? -->
<g id="node17" class="node"><title>Nausea/Vommiting?</title>
<ellipse fill="gray" stroke="black" cx="541.12" cy="-18" rx="64.889" ry="18"/>
<text text-anchor="middle" x="541.12" y="-15.2" font-family="Times,serif" font-size="11.00">Nausea/Vommiting?</text>
</g>
<!-- Sequence*&#45;&gt;Nausea/Vommiting? -->
<g id="edge16" class="edge"><title>Sequence*&#45;&gt;Nausea/Vommiting?</title>
<path fill="none" stroke="black" d="M559.188,-71.6966C556.514,-63.8979 553.295,-54.5085 550.319,-45.8292"/>
<polygon fill="black" stroke="black" points="553.539,-44.4286 546.985,-36.1043 546.917,-46.699 553.539,-44.4286"/>
</g>
<!-- ondansetron -->
<g id="node18" class="node"><title>ondansetron</title>
<ellipse fill="gray" stroke="black" cx="666.12" cy="-18" rx="42.1875" ry="18"/>
<text text-anchor="middle" x="666.12" y="-15.2" font-family="Times,serif" font-size="11.00">ondansetron</text>
</g>
<!-- Sequence*&#45;&gt;ondansetron -->
<g id="edge17" class="edge"><title>Sequence*&#45;&gt;ondansetron</title>
<path fill="none" stroke="black" d="M589.828,-71.8761C603.888,-62.1316 621.594,-49.8601 636.408,-39.5926"/>
<polygon fill="black" stroke="black" points="638.522,-42.3861 644.747,-33.8131 634.534,-36.6328 638.522,-42.3861"/>
</g>
<!-- Fentanyl_IN -->
<g id="node21" class="node"><title>Fentanyl_IN</title>
<ellipse fill="gray" stroke="black" cx="732.12" cy="-162" rx="43.0936" ry="18"/>
<text text-anchor="middle" x="732.12" y="-159.2" font-family="Times,serif" font-size="11.00">Fentanyl_IN</text>
</g>
<!-- Sequence**&#45;&gt;Fentanyl_IN -->
<g id="edge20" class="edge"><title>Sequence**&#45;&gt;Fentanyl_IN</title>
<path fill="none" stroke="black" d="M732.12,-215.697C732.12,-207.983 732.12,-198.712 732.12,-190.112"/>
<polygon fill="black" stroke="black" points="735.621,-190.104 732.12,-180.104 728.621,-190.104 735.621,-190.104"/>
</g>
<!-- Selector*** -->
<g id="node22" class="node"><title>Selector***</title>
<polygon fill="cyan" stroke="black" points="882.942,-154.544 882.942,-169.456 856.686,-180 819.554,-180 793.298,-169.456 793.298,-154.544 819.554,-144 856.686,-144 882.942,-154.544"/>
<text text-anchor="middle" x="838.12" y="-159.2" font-family="Times,serif" font-size="11.00">Selector***</text>
</g>
<!-- Sequence**&#45;&gt;Selector*** -->
<g id="edge21" class="edge"><title>Sequence**&#45;&gt;Selector***</title>
<path fill="none" stroke="black" d="M758.051,-215.876C772.602,-206.267 790.874,-194.201 806.288,-184.022"/>
<polygon fill="black" stroke="black" points="808.567,-186.711 814.983,-178.279 804.71,-180.869 808.567,-186.711"/>
</g>
<!-- Sequence*** -->
<g id="node23" class="node"><title>Sequence***</title>
<polygon fill="orange" stroke="black" points="867.62,-108 792.62,-108 792.62,-72 867.62,-72 867.62,-108"/>
<text text-anchor="middle" x="830.12" y="-87.2" font-family="Times,serif" font-size="11.00">Sequence***</text>
</g>
<!-- Selector***&#45;&gt;Sequence*** -->
<g id="edge22" class="edge"><title>Selector***&#45;&gt;Sequence***</title>
<path fill="none" stroke="black" d="M836.143,-143.697C835.261,-135.983 834.202,-126.712 833.219,-118.112"/>
<polygon fill="black" stroke="black" points="836.688,-117.642 832.075,-108.104 829.733,-118.437 836.688,-117.642"/>
</g>
<!-- NS** -->
<g id="node26" class="node"><title>NS**</title>
<ellipse fill="gray" stroke="black" cx="913.12" cy="-90" rx="27" ry="18"/>
<text text-anchor="middle" x="913.12" y="-87.2" font-family="Times,serif" font-size="11.00">NS**</text>
</g>
<!-- Selector***&#45;&gt;NS** -->
<g id="edge25" class="edge"><title>Selector***&#45;&gt;NS**</title>
<path fill="none" stroke="black" d="M856.66,-143.697C866.852,-134.184 879.581,-122.304 890.371,-112.233"/>
<polygon fill="black" stroke="black" points="892.899,-114.661 897.822,-105.279 888.123,-109.543 892.899,-114.661"/>
</g>
<!-- Nausea/Vommiting?* -->
<g id="node24" class="node"><title>Nausea/Vommiting?*</title>
<ellipse fill="gray" stroke="black" cx="823.12" cy="-18" rx="67.9024" ry="18"/>
<text text-anchor="middle" x="823.12" y="-15.2" font-family="Times,serif" font-size="11.00">Nausea/Vommiting?*</text>
</g>
<!-- Sequence***&#45;&gt;Nausea/Vommiting?* -->
<g id="edge23" class="edge"><title>Sequence***&#45;&gt;Nausea/Vommiting?*</title>
<path fill="none" stroke="black" d="M828.39,-71.6966C827.619,-63.9827 826.692,-54.7125 825.832,-46.1124"/>
<polygon fill="black" stroke="black" points="829.309,-45.7064 824.831,-36.1043 822.343,-46.403 829.309,-45.7064"/>
</g>
<!-- ondansetron* -->
<g id="node25" class="node"><title>ondansetron*</title>
<ellipse fill="gray" stroke="black" cx="954.12" cy="-18" rx="45.2009" ry="18"/>
<text text-anchor="middle" x="954.12" y="-15.2" font-family="Times,serif" font-size="11.00">ondansetron*</text>
</g>
<!-- Sequence***&#45;&gt;ondansetron* -->
<g id="edge24" class="edge"><title>Sequence***&#45;&gt;ondansetron*</title>
<path fill="none" stroke="black" d="M860.454,-71.8761C878.569,-61.6497 901.615,-48.6402 920.313,-38.0846"/>
<polygon fill="black" stroke="black" points="922.115,-41.0866 929.103,-33.1228 918.674,-34.9909 922.115,-41.0866"/>
</g>
</g>
</svg>
